<?xml version="1.0" encoding="UTF-8"?>
<!DOCTYPE svg PUBLIC "-//W3C//DTD SVG 1.1//EN" "http://www.w3.org/Graphics/SVG/1.1/DTD/svg11.dtd">
<!-- Creator: CorelDRAW -->
<svg xmlns="http://www.w3.org/2000/svg" xml:space="preserve" version="1.1" shape-rendering="geometricPrecision" text-rendering="geometricPrecision" image-rendering="optimizeQuality" fill-rule="evenodd" clip-rule="evenodd"
viewBox="0 0 7.32 7.32"
 xmlns:xlink="http://www.w3.org/1999/xlink"
 xmlns:xodm="http://www.corel.com/coreldraw/odm/2003">
 <g id="Camada_x0020_1">
  <metadata id="CorelCorpID_0Corel-Layer"/>
  <g id="_2170304949936">
   <polygon fill="#0CC9CF" fill-rule="nonzero" points="3.08,5.1 1.66,3.68 2.13,3.21 3.08,4.16 4.96,2.27 5.43,2.74 3.08,5.1 "/>
   <path fill="#0CC9CF" d="M0 3.66c0,-2.02 1.64,-3.66 3.66,-3.66 2.02,0 3.66,1.64 3.66,3.66 0,2.02 -1.64,3.66 -3.66,3.66 -2.02,0 -3.66,-1.64 -3.66,-3.66zm3.66 3c-0.39,0 -0.78,-0.08 -1.14,-0.23 -0.37,-0.15 -0.7,-0.37 -0.98,-0.65 -0.28,-0.28 -0.5,-0.61 -0.65,-0.97 -0.15,-0.37 -0.22,-0.76 -0.22,-1.15 0,-0.39 0.07,-0.78 0.22,-1.14 0.15,-0.37 0.37,-0.7 0.65,-0.98 0.28,-0.28 0.61,-0.5 0.98,-0.65 0.36,-0.15 0.75,-0.22 1.14,-0.22 0.8,0 1.56,0.31 2.12,0.87 0.56,0.56 0.88,1.33 0.88,2.12 0,0.8 -0.32,1.56 -0.88,2.12 -0.56,0.56 -1.32,0.88 -2.12,0.88z"/>
  </g>
 </g>
</svg>
