<?xml version="1.0" encoding="UTF-8"?>
<!DOCTYPE svg PUBLIC "-//W3C//DTD SVG 1.1//EN" "http://www.w3.org/Graphics/SVG/1.1/DTD/svg11.dtd">
<!-- Creator: CorelDRAW -->
<svg xmlns="http://www.w3.org/2000/svg" xml:space="preserve" width="235px" height="235px" version="1.1" shape-rendering="geometricPrecision" text-rendering="geometricPrecision" image-rendering="optimizeQuality" fill-rule="evenodd" clip-rule="evenodd"
viewBox="0 0 562.77 562.77"
 xmlns:xlink="http://www.w3.org/1999/xlink"
 xmlns:xodm="http://www.corel.com/coreldraw/odm/2003">
 <g id="Camada_x0020_1">
  <metadata id="CorelCorpID_0Corel-Layer"/>
  <path fill="#717171" d="M416.51 511.11l43.19 0 0 29.68 -43.19 0 0 -29.68zm-194.93 -457.25c0,15.94 22.15,15.15 22.15,2.2 0,-19.24 -22.15,-14.09 -22.15,-2.2zm-100.79 393.5c0,13.84 23.26,15.44 23.26,0 0,-14.48 -23.26,-14.11 -23.26,0zm232.59 -261.6c0,6.57 5.45,11.5 11.21,11.76 15.58,0.71 15.36,-22.75 0.97,-22.75 -8.02,0 -12.18,7.37 -12.18,10.99zm-270.25 -175.87l0 6.6c-8.3,0 -16.61,-0.86 -16.61,12.09 0,10.82 11.1,9.89 16.61,9.89l0 6.6c0,7.33 7.98,11.55 13.6,10.26 11.23,-2.59 7.19,-13.47 9.57,-15.85 2.28,-2.26 13.66,1.42 15.91,-9.44 2.52,-12.2 -8.21,-13.55 -16.92,-13.55 0,-8.25 0.86,-16.49 -12.19,-16.49 -5.47,0 -9.97,4.46 -9.97,9.89zm382.11 27.48l0 5.5c-25.28,0 -18.07,23.08 -5.54,23.08l5.54 0c0,5.85 -0.96,16.49 11.08,16.49 12.1,0 11.07,-11.75 11.07,-16.49 12.28,0 16.62,-1.22 16.62,-14.28 0,-6.44 -9.37,-8.8 -16.62,-8.8 0,-19.96 -13.47,-18.02 -18.81,-13.18 -1.89,1.71 -3.34,4.1 -3.34,7.68zm-158.38 105.52c-26.84,0 -27.18,-7.11 -37.66,-9.89l0 -2.2c32.82,0 60.41,-25.49 72.34,-53.51 4.51,-10.57 5.2,-21.71 5.2,-36.62 12.66,8.42 17.71,29.84 17.71,45.06 0,29.9 -27.49,57.16 -57.59,57.16zm17.72 -94.53c0,18.39 -9.62,33.29 -21.3,44.82 -7.92,7.82 -23.01,14.37 -34.21,15.5 -4.69,0.47 -29.26,-1.91 -29.26,19.92 0,25.83 74.52,61.58 122.71,13.47 65.83,-65.71 -15.46,-161.18 -37.21,-118.27 -3.66,7.21 -0.73,15.93 -0.73,24.56zm34.34 411.09l35.44 0 0 81.34 -35.44 0 0 -81.34zm-65.35 51.66l42.09 0 0 29.68 -42.09 0 0 -29.68zm-198.25 0l174.99 0 0 29.68 -174.99 0 0 -29.68zm321.19 -51.66l43.19 0 0 28.58 -43.19 0 0 -28.58zm-122.94 0l42.09 0 0 28.58 -42.09 0 0 -28.58zm0 -67.05l43.19 0c5.57,0 0.34,5.14 14.65,18.45 18.78,17.45 55.46,8.45 61.78,-18.45l46.51 0 0 43.97 -166.13 0 0 -43.97zm-120.72 53.86c0,9.16 4.11,13.19 15.5,13.19l81.96 0 0 28.58 -174.99 0 0 -82.43 174.99 0 0 30.77 -86.39 0c-5.59,0 -11.07,3.97 -11.07,9.89zm187.17 -64.85c0,-21.03 32.12,-22.51 32.12,0 0,4.55 -1.4,7.9 -3.76,10.55 -8.86,9.92 -28.36,4.24 -28.36,-10.55zm-21.04 -12.09l-26.58 0 64.24 -57.15 55.54 49.29c2.96,2.34 5.55,4.85 7.59,7.86l-26.58 0c-6.61,-28.14 -50.5,-37.42 -68.91,-10.13 -3.09,4.57 -3.01,5.4 -5.3,10.13zm48.73 -105.52l41.28 37.08c3.23,3.24 4.32,4.46 8.1,7.35l57.79 52.56c3.34,2.92 4.98,3.79 8.3,7.15 5.34,5.42 12.32,9.72 16.33,15.67 -5.98,0 -22.71,0.76 -27.47,-0.22 -3.02,-0.62 -12.69,-9.58 -15.46,-12.13 -2.55,-2.35 -4.06,-4.38 -6.74,-6.5 -3.48,-2.75 -4.43,-3.5 -7.63,-6.72l-44.3 -39.57c-2.95,-2.97 -4.28,-3.48 -7.21,-6.04 -2.79,-2.44 -4.43,-4.74 -7.32,-7.03 -6.08,-4.81 -9.16,-8.7 -15.67,-13.02l0 -28.58zm-157.27 119.81c3.24,-4.8 18.77,-16.93 24.07,-22.27 3.37,-3.39 5.61,-4.4 8.89,-7.67l102.16 -89.87c0,6.35 1.46,24.9 -1.85,28.94 -3.84,4.68 -20.23,17.61 -25.02,22.43l-76.7 67.88c-4.45,1.66 -25.21,0.56 -31.55,0.56zm-163.92 0c0.86,-3.19 9.69,-10.16 12.46,-12.92l119.62 -113.21c6.98,-6.93 4.52,-8.12 17.42,-7.99l130.72 0.02 -150.44 133.19c-5.5,2.94 -18.55,0.91 -25.67,0.91 -34.7,0 -69.41,0 -104.11,0zm382.11 -96.73c-6.11,-1.61 -29.1,-27.19 -34.34,-28.58 0.12,-5.26 2.93,-9.65 4.56,-14.16l32.32 -81.13c3.33,-8.51 2.4,-12.42 9.64,-12.42 3.71,0 3.67,3.5 6.02,9.42l68.19 171.94c0,2.52 -0.38,1.28 -1.11,4.4 -8.95,2.07 -19.47,1.1 -28.8,1.1 -3.52,0 -23.36,-19.66 -30.74,-25.56 -5.12,-4.09 -3.63,-6.67 -3.6,-15.11 0.07,-12.45 0.01,-24.92 0.01,-37.38 0,-10.3 2.04,-19.25 -3.57,-23.93 -7.8,-6.54 -14.88,-2.07 -17.35,2.07 -2.43,4.07 -1.23,42.93 -1.23,49.34zm-323.41 9.89c-7.54,3.97 -13.59,11.78 -19.65,17.87 -2.52,2.53 -18.25,17.31 -20.22,17.31l-37.66 0c-4.46,0 -7.75,-7.17 -7.75,-7.7 0,-3.77 30.82,-79.74 36.39,-93.58l51.08 -128.48c1.64,-4.18 2.65,-7.56 8.16,-8.38 8.81,-1.32 11.73,10.41 14.15,17.08 6.07,16.75 44.58,110.06 46.38,117.74l-47.62 45.06c0,-15.75 0,-31.51 0,-47.26 0,-8.45 1.12,-16.33 -3.07,-21.13 -4.09,-4.68 -12.01,-5.02 -16.58,-0.58 -7.01,6.81 -3.61,31.11 -3.61,43.69 0,16.12 0,32.24 0,48.36zm-107.43 23.09c0,29.75 18.49,35.17 44.3,35.17 -2.55,3.78 -5.61,6.28 -9.5,9.26 -3.84,2.94 -6.24,5.81 -9.6,9.15 -3.38,3.35 -5.97,6.09 -9.42,9.35 -2.33,2.21 -8.03,6.01 -8.03,11.81 0,5.21 5.41,11 11.08,11l36.55 0 0 135.19 -63.13 0c-13.38,0 -13.38,21.98 0,21.98l542.7 0c13.38,0 13.38,-21.98 0,-21.98l-70.88 0 0 -135.19 66.45 0c9.55,0 12.18,-4.6 12.18,-12.1 0,-9 -25.83,-24.74 -32.12,-34.07 9.38,0 11.66,-0.78 17.55,-4.57 4.54,-2.93 7.56,-6.84 9.74,-12.33 5.17,-13.09 -1.06,-23.54 -5.46,-34.45 -8.83,-21.92 -17.11,-42.5 -25.62,-64.7l-25.79 -64.53c-10.52,-26.08 -14.52,-51.35 -39.09,-51.35 -13.35,0 -21.62,7.68 -25.81,17.25l-31.36 78.79c-2.1,5.85 -4.59,10.26 -5.96,16.08 -5.37,-1.43 -10.12,-8.01 -13.03,-10.15 -5.33,-3.91 -60.14,-1.94 -68.93,-1.94 -31.38,0 -62.76,0 -94.14,0l-33.54 -84.32c-4.47,-11.07 -20.03,-55.03 -27.05,-62.2 -11.27,-11.51 -29.8,-12.85 -41.98,-3.64 -5.68,4.29 -6.81,6.64 -10.05,13.11 -2.63,5.26 -4.06,9.98 -6.36,15.67 -2.43,6.01 -4.22,10.46 -6.65,16.49 -6.23,15.48 -77.05,189.42 -77.05,197.22z"/>
 </g>
</svg>
