<?xml version="1.0" encoding="UTF-8"?>
<!DOCTYPE svg PUBLIC "-//W3C//DTD SVG 1.1//EN" "http://www.w3.org/Graphics/SVG/1.1/DTD/svg11.dtd">
<!-- Creator: CorelDRAW -->
<svg xmlns="http://www.w3.org/2000/svg" xml:space="preserve" width="235px" height="235px" version="1.1" shape-rendering="geometricPrecision" text-rendering="geometricPrecision" image-rendering="optimizeQuality" fill-rule="evenodd" clip-rule="evenodd"
viewBox="0 0 57.29 57.29"
 xmlns:xlink="http://www.w3.org/1999/xlink"
 xmlns:xodm="http://www.corel.com/coreldraw/odm/2003">
 <g id="Camada_x0020_1">
  <metadata id="CorelCorpID_0Corel-Layer"/>
  <path fill="#717171" d="M28.65 35.25l-1.63 -0.94c-0.74,-0.44 -1.62,-0.7 -1.62,-1.08l0 -7.94 10.52 0 0 6.27 -3.76 1.72c-0.62,0.37 -1.13,0.58 -1.76,0.93l-1.75 1.04zm15.78 -25.18c0,0.53 0.49,1.12 1.23,1.12 1.33,0 1.49,-2.24 -0.12,-2.24 -0.57,0 -1.11,0.59 -1.11,1.12zm-6.61 31.67c0,-1.37 -1.77,-1.65 -2.2,-0.51 -0.17,0.45 -0.08,0.91 0.24,1.24 0.76,0.75 1.96,0.08 1.96,-0.73zm2.91 -2.57c0,0.47 -0.06,0.78 0.25,1.09 0.69,0.68 1.54,0.2 2.51,-0.13 2.21,-0.74 5.55,-1.49 7.89,-1.73 0.75,-0.08 1.54,-0.07 2.29,-0.18 1.49,-0.22 3.62,0.45 3.62,-1.29 0,-0.58 -0.58,-1.12 -1.12,-1.12 -3.02,0 -6.04,0.37 -8.53,0.87 -0.89,0.18 -5.63,1.34 -6.37,1.8 -0.18,0.11 -0.54,0.42 -0.54,0.69zm-21.71 17c0,0.49 0.47,1.04 1.05,1.12l0.28 0c0.3,-0.04 0.61,-0.21 0.88,-0.58 0.25,-0.32 0.41,-0.58 0.66,-0.92 0.49,-0.68 0.9,-1.23 1.38,-1.86 0.21,-0.27 0.46,-0.56 0.71,-0.86l4.75 -4.75 2.7 -2.12c0.84,-0.63 1.58,-0.8 1.58,-1.89 0,-0.48 -0.59,-1.65 -2.17,-0.49 -0.34,0.25 -0.58,0.41 -0.92,0.65 -0.69,0.48 -1.21,0.92 -1.83,1.41l-3.45 3.04 -2.58 2.91c-0.58,0.71 -3.04,3.64 -3.04,4.34zm11.64 0c0,0.67 0.46,1.12 1.23,1.12 0.65,0 1.68,-1.32 2.51,-1.96 0.48,-0.37 0.74,-0.63 1.23,-1.01l5.59 -3.59c1.1,-0.6 3.65,-1.59 4.84,-1.98 2.09,-0.7 5.46,-1.41 7.65,-1.53 0.36,-0.02 0.76,0.03 1.12,0 1.57,-0.13 2.46,0.07 2.46,-1.45 0,-0.16 -0.3,-0.9 -1,-0.9 -8.18,0 -16.17,2.79 -22.36,7.86 -0.25,0.21 -0.37,0.29 -0.61,0.51l-1.18 1.06c-0.45,0.4 -1.48,1.05 -1.48,1.87zm-30.66 -18.9l0 -0.47c0.09,-0.4 0.4,-0.76 0.78,-0.89 0.49,-0.17 0.92,-0.02 1.46,0.01 1.18,0.07 2.08,0 3.21,0.14 4.34,0.55 7.02,1.21 11.07,2.59 0.46,0.15 0.76,0.29 1.21,0.47 0.44,0.18 0.8,0.3 1.18,0.49 0.39,0.2 0.74,0.32 1.16,0.52 0.25,0.12 0.35,0.17 0.6,0.3 0.09,0.05 0.2,0.1 0.29,0.16 0.23,0.14 0.07,0.04 0.19,0.14 1.38,-0.92 2.58,-2.13 3.96,-3.09 0.35,-0.24 1.11,-0.77 1.3,-1.05l-1.45 -0.78c-1.41,-0.73 -2.84,-1.48 -4.32,-2.06 -4.48,-1.78 -8.68,-3.01 -13.57,-3.56 -1.26,-0.14 -2.5,-0.31 -3.94,-0.31 -1.7,0 -3.13,0.2 -3.13,-1.46 0,-1.36 3.45,-0.86 4.04,-0.8l2 0.13c0,-3.87 0.4,-3.24 -0.92,-4.56 -0.95,-0.95 -1.81,-2.06 -2.44,-3.27 -1.15,-2.22 -1.69,-5.24 -1.14,-7.98 0.47,-2.37 1.66,-4.58 3.36,-6.26 2.41,-2.4 2.42,-2.13 4.81,0.28 0.38,0.38 0.65,0.8 0.99,1.25 1.33,1.77 2.21,4.06 2.28,6.33 0.07,2.2 0.03,3.14 -0.88,5.39 -0.58,1.45 -1.47,2.85 -2.56,3.93 -1.48,1.47 -1.26,0.96 -1.26,2.99 0,0.71 0,1.42 0,2.13 0.65,0.15 1.58,0.33 2.35,0.33 0,-5.36 -0.53,-4.11 1.71,-6.35l1.79 -1.9c0.65,-0.67 1.24,-1.24 1.9,-1.9 0.56,-0.56 1.19,-1.49 2.21,-1.49l12.53 0c0.69,0 1.21,0.71 1.6,1.09l4.03 4.03c1.31,1.31 1.88,1.39 1.87,3.5 -0.01,1.79 0,3.58 0,5.37 0.93,-0.44 5.22,-1.77 6.16,-1.79 0,-4.23 0.19,-2.31 -2.28,-5.23l-1.08 -1.37c-1.87,-2.63 -2.91,-5.78 -2.91,-9.07 0,-4.36 1.84,-7.74 4.51,-10.93 0.46,-0.55 2.18,-2.27 2.87,-2.27 0.73,0 1.21,0.64 1.66,1.03 0.86,0.76 1.71,1.6 2.37,2.55 1.42,2.03 2.72,4.25 3.14,6.83l0.23 2.23c0.28,3.36 -0.96,7.15 -2.73,9.49 -0.72,0.95 -1.39,1.85 -2.23,2.68l-0.98 0.93c-0.16,0.15 -0.23,-0.01 -0.23,0.33l0 2.24c0.63,0 1.31,-0.19 1.95,-0.29 2.56,-0.37 4.97,-0.49 7.57,-0.49 1.1,0 1.33,1.53 0.5,2.07 -0.5,0.33 -3.41,0.27 -4.32,0.37 -0.37,0.04 -0.7,0 -1.08,0.05 -5.73,0.73 -11.39,2 -16.59,4.56 -0.52,0.25 -1.04,0.52 -1.57,0.78 -3.31,1.65 -6.37,3.75 -9.25,6.08l-2.48 2.22c-1.29,1.03 -2.37,2.36 -3.46,3.59 -1.28,1.45 -2.49,2.98 -3.58,4.58l-2.72 4.34c-0.19,0.33 -0.63,1.12 -1.11,1.12 -0.65,0 -1.34,-0.21 -1.34,-1 0,-0.63 0.58,-1.48 0.9,-2.01l2.07 -3.3c0.37,-0.55 0.7,-0.99 1.06,-1.52 -0.74,-0.06 -5.75,-2.24 -10.29,-2.24 -1.29,0 -3.03,0.14 -3.03,-1.12 0,-0.36 0.07,-0.71 0.38,-0.96 1.09,-0.88 7.53,0.37 8.41,0.56 2.81,0.62 4.79,1.61 5.87,1.86 0.49,-0.33 2.31,-2.65 2.94,-3.33 0.21,-0.23 0.39,-0.39 0.61,-0.62 0.36,-0.35 1.02,-0.82 1.15,-1.31 -0.78,-0.18 -1.45,-0.63 -2.21,-0.93 -3.73,-1.48 -6.95,-2.3 -10.97,-2.9 -1.35,-0.19 -2.79,-0.32 -4.28,-0.31 -1.24,0.01 -1.78,-0.41 -1.9,-0.89zm16.67 -8.18l2.69 0 0 1.68 -2.68 -0.91 -0.01 -0.77zm-2.23 0.12c-0.47,-0.11 -1.06,-0.3 -1.57,-0.34l0 -3.58 10.29 0 0 7.05 -1.56 -0.67c0,-0.82 0.2,-3.91 -0.25,-4.46 -0.25,-0.31 -0.55,-0.47 -1.1,-0.47l-4.47 0c-1.65,0 -1.34,1.49 -1.34,2.47zm3.58 -9.74l3.35 3.47 -6.71 0 3.36 -3.47zm2.91 -0.45c2.86,0 5.75,0.03 8.62,0 1.1,-0.01 0.89,0.05 1.47,0.65 0.38,0.38 0.69,0.68 1.07,1.06 0.55,0.55 1.78,1.66 2.15,2.21 -2.87,0 -5.75,-0.03 -8.62,0 -1.31,0.02 -0.93,0.02 -2.6,-1.65l-2.09 -2.27zm23.5 3.7c-0.98,-0.66 -2.6,-3.45 -3.07,-4.77 -1.41,-3.96 -1.11,-7.37 0.83,-11.13 0.3,-0.59 1.05,-1.69 1.48,-2.2 0.17,-0.2 0.28,-0.27 0.44,-0.46 0.19,-0.25 0.21,-0.31 0.45,-0.55 0.33,-0.34 0.61,-0.67 0.98,-0.92 1.16,0.77 1.94,1.95 2.77,3.05 3.15,4.17 3.16,10.86 -0.06,15.2 -0.3,0.41 -1.13,1.55 -1.48,1.78l0.01 -7.95c-0.05,-2.17 -2.32,-2.04 -2.36,-0.12l0.01 8.07zm-38.39 -2.02c-0.55,-0.37 -1.4,-1.91 -1.71,-2.65 -1.18,-2.78 -0.92,-5.64 0.41,-8.28 0.46,-0.93 1.64,-2.53 2.42,-3.06 1.95,1.31 3.58,4.86 3.58,7.73 0,1.27 -0.35,2.68 -0.75,3.61 -0.31,0.74 -1.15,2.28 -1.71,2.65l0.01 -6.94c0.01,-1.85 -1.53,-1.66 -2.03,-1.01 -0.37,0.47 -0.22,2.37 -0.22,3.25 0,1.57 0,3.13 0,4.7z"/>
 </g>
</svg>
