<?xml version="1.0" encoding="UTF-8"?>
<!DOCTYPE svg PUBLIC "-//W3C//DTD SVG 1.1//EN" "http://www.w3.org/Graphics/SVG/1.1/DTD/svg11.dtd">
<!-- Creator: CorelDRAW -->
<svg xmlns="http://www.w3.org/2000/svg" xml:space="preserve" width="235px" height="235px" version="1.1" shape-rendering="geometricPrecision" text-rendering="geometricPrecision" image-rendering="optimizeQuality" fill-rule="evenodd" clip-rule="evenodd"
viewBox="0 0 128.47 128.47"
 xmlns:xlink="http://www.w3.org/1999/xlink"
 xmlns:xodm="http://www.corel.com/coreldraw/odm/2003">
 <g id="Camada_x0020_1">
  <metadata id="CorelCorpID_0Corel-Layer"/>
  <path fill="#717171" d="M109.2 117.77c3.83,0 6.42,2.6 6.42,6.42l-12.84 0c0,-3.82 2.58,-6.42 6.42,-6.42zm-38.54 -14.97l4.28 0 0 -4.28 -4.28 0 0 4.28zm-8.57 0l4.29 0 0 -4.28 -4.29 0 0 4.28zm-8.56 0l4.28 0 0 -4.28 -4.28 0 0 4.28zm17.13 -8.56l4.28 0 0 -4.28 -4.28 0 0 4.28zm-8.57 0l4.29 0 0 -4.28 -4.29 0 0 4.28zm-8.56 0l4.28 0 0 -4.28 -4.28 0 0 4.28zm17.13 -8.56l4.28 0 0 -4.28 -4.28 0 0 4.28zm-8.57 0l4.29 0 0 -4.28 -4.29 0 0 4.28zm-8.56 0l4.28 0 0 -4.28 -4.28 0 0 4.28zm17.13 -8.56l4.28 0 0 -4.28 -4.28 0 0 4.28zm-8.57 0l4.29 0 0 -4.28 -4.29 0 0 4.28zm-8.56 0l4.28 0 0 -4.28 -4.28 0 0 4.28zm17.13 -8.55l4.28 0 0 -4.28 -4.28 0 0 4.28zm-8.57 0l4.29 0 0 -4.28 -4.29 0 0 4.28zm-8.56 0l4.28 0 0 -4.28 -4.28 0 0 4.28zm34.26 40.65l6.42 0 0 -4.28 -6.42 0 0 4.28zm-53.53 0l6.42 0 0 -4.28 -6.42 0 0 4.28zm53.53 -10.7l6.42 0 0 -4.28 -6.42 0 0 4.28zm-53.53 0l6.42 0 0 -4.28 -6.42 0 0 4.28zm53.53 -10.7l6.42 0 0 -4.28 -6.42 0 0 4.28zm-53.53 0l6.42 0 0 -4.28 -6.42 0 0 4.28zm0 -10.7l6.42 0 0 -4.28 -6.42 0 0 4.28zm53.53 0l6.42 0 0 -4.28 -6.42 0 0 4.28zm-80.83 -15.24c4.86,-1.13 2.38,-0.71 4.55,-3.21 0.22,0.96 0.7,1.88 1.35,2.39 0.71,0.55 1.95,0.59 2.93,0.82 -0.45,0.67 -3,2.18 -1.6,5.08 -0.94,-0.22 -2.07,-1.07 -2.68,-1.07 -1.13,0 -1.76,0.8 -2.95,1.07 1.48,-3.08 -1.21,-4.55 -1.6,-5.08zm-6.96 -1.6c0,1.91 2.1,2.86 3.7,4.59 1.41,1.52 -0.22,3.27 -0.22,6.64 0,0.88 1.25,1.87 2.14,1.87 1.66,0 4.48,-2.52 5.66,-2.59 1.12,-0.07 4.38,2.59 5.58,2.59 4.17,0 1.61,-5.18 1.61,-7.76 0,-0.98 4.28,-3.11 4.28,-5.34 0,-3.86 -5.94,-1.32 -7.42,-3.55 -0.04,-0.06 -0.36,-0.76 -0.44,-0.91l-1.64 -3.43c-0.59,-0.84 -0.89,-0.94 -2.01,-0.94 -2.47,0 -2.82,4.69 -4.19,5.71 -1.64,1.23 -7.05,-0.32 -7.05,3.12zm112.68 1.6c2.03,-0.47 2.75,-0.12 3.74,-1.88l0.81 -1.33c0.72,3.07 2.44,2.78 4.28,3.21 -0.58,0.87 -1.24,0.87 -1.77,1.99 -0.35,0.75 -0.26,2.19 0.17,3.09 -0.94,-0.22 -2.07,-1.07 -2.68,-1.07 -1.13,0 -1.76,0.8 -2.94,1.07 1.45,-3.03 -1.39,-4.75 -1.61,-5.08zm-6.96 -1.6c0,1.91 2.11,2.86 3.71,4.59 0.92,1 0.49,1.59 0.23,3.08 -0.28,1.6 -1.37,5.43 1.68,5.43 1.66,0 4.48,-2.52 5.66,-2.59 1.12,-0.07 4.38,2.59 5.58,2.59 3.48,0 2.19,-3.82 1.95,-5.15 -0.24,-1.31 -0.68,-2.26 0.1,-3.22 1.47,-1.8 3.84,-2.78 3.84,-4.73 0,-3.86 -5.94,-1.32 -7.42,-3.55 -1.49,-2.24 -1.41,-5.28 -4.09,-5.28 -2.47,0 -2.82,4.69 -4.19,5.71 -1.64,1.23 -7.05,-0.32 -7.05,3.12zm-15.26 -23.27c1.28,0 2.09,-0.2 3.37,-0.38 5.16,-0.74 2.92,-3.91 5.47,-5.77 0.18,0.79 1.91,4.37 2.37,4.84 0.83,0.85 4.48,1.31 6.19,1.31 -1.34,2 -2.94,2.45 -3.75,3.74 -1.13,1.79 0.27,3.95 0.27,6.42 -1.19,-0.28 -4.12,-2.41 -5.08,-2.41 -1.34,0 -4.02,2.04 -5.62,2.41 0.39,-0.82 0.8,-4.26 0.8,-5.62 0,-0.87 -3.38,-3.59 -4.02,-4.54zm3.22 -4.82c-1.77,0 -4.1,0.58 -5.88,0.82 -2.4,0.33 -4.29,0.16 -4.29,2.66 0,1.39 1.63,2.64 2.47,3.41 0.65,0.6 0.95,0.7 1.61,1.33 0.57,0.55 0.92,0.93 1.48,1.47 1.32,1.26 0.85,1.34 0.32,4.49 -0.44,2.66 -1.47,5.39 -0.17,6.59 2.58,2.37 7.14,-3.12 9.85,-3.3 2.3,-0.15 8.5,6.55 10.42,2.6 0.4,-0.83 0.03,-1.89 -0.17,-3.06 -0.26,-1.51 -0.74,-5.38 -1.19,-6.31 0.65,-0.43 6.69,-6.08 6.69,-7.22 0,-3.85 -8.17,-2.28 -9.99,-3.65 -1.74,-1.3 -2.74,-8.38 -5.8,-8.38 -1.92,0 -2.5,2.32 -3.21,3.74 -0.55,1.1 -2.04,3.56 -2.14,4.81zm-73.07 4.82c1.53,0 5.22,-0.47 6.05,-1.18 0.58,-0.49 2.31,-4.11 2.51,-4.97 2.78,2.03 -0.39,6.15 8.84,6.15 -0.91,1.35 -4.02,3.38 -4.02,4.81 0,1.23 0.46,4.63 0.8,5.35 -1.36,-0.32 -4.49,-2.41 -5.35,-2.41 -1.5,0 -3.91,2.08 -5.35,2.41 0,-4.24 2.46,-5.1 -1.49,-8.14 -0.82,-0.63 -1.46,-1.23 -1.99,-2.02zm-6.96 -1.61c0,1.47 5.42,6.64 6.69,7.49 -0.44,0.91 -0.9,4.63 -1.15,6.08 -0.08,0.52 -0.49,2.34 -0.35,2.91 0.18,0.77 1.22,1.71 2.04,1.71 1.43,0 7.64,-3.89 8.33,-3.93 1.5,-0.09 6.41,3.93 8.8,3.93 3.09,0 1.37,-5.38 1.14,-6.76 -0.96,-5.76 -0.92,-3.64 3.21,-7.61 1.19,-1.14 2.6,-2.05 2.6,-3.82 0,-2.18 -2.31,-2.15 -4.26,-2.42 -0.93,-0.12 -2.24,-0.33 -3.04,-0.44 -3.32,-0.45 -2.31,0.23 -5.01,-5.16 -1.13,-2.27 -1.19,-3.74 -3.74,-3.74 -2.12,0 -3.9,7.85 -5.61,8.57 -2.2,0.93 -9.65,0.03 -9.65,3.19zm36.13 -17.65c1.73,0 9.19,-0.88 10.12,-1.93 0.49,-0.56 3.87,-7.38 4.07,-8.23l0.53 0c0.2,0.83 3.44,7.4 3.96,8.08 0.9,1.19 2.93,1.13 4.76,1.4 1.76,0.25 3.74,0.68 5.47,0.68 -0.49,1.84 -6.96,6.01 -6.96,7.49l1.61 9.9c-10.78,-5.7 -7.81,-5.32 -13.66,-2.41 -1.54,0.77 -3,1.59 -4.54,2.41 0.35,-1.51 0.55,-3.12 0.87,-4.75 1.32,-6.75 1.21,-5.26 -4.56,-10.56 -1.44,-1.33 -1.11,-1.01 -1.67,-2.08zm-7.22 -1.6c0,1.36 1.17,2.11 1.94,2.87 1.64,1.64 6.58,6.82 7.69,7.56 -0.47,2.02 -0.78,4.13 -1.15,6.34 -0.69,4.16 -2.44,8.37 1.42,8.37 1.02,0 1.61,-0.68 2.94,-1.34 11.64,-5.78 6.11,-5.72 17.49,-0.09 1.41,0.7 3.18,2.27 4.79,0.96 1.52,-1.24 0.3,-4.57 -0.21,-7.67 -0.39,-2.3 -0.7,-4.48 -1.19,-6.57 0.69,-0.46 9.64,-9 9.64,-10.16 0,-2.8 -3.51,-2.45 -6.43,-2.95l-6.32 -0.9c-2.01,-0.29 -1.38,-0.05 -3.22,-3.73l-3.19 -6.45c-1.17,-2.9 -3.35,-3.4 -4.94,-0.15l-3.12 6.24c-0.48,0.97 -1.05,2.39 -1.58,3.23 -0.57,0.91 -0.11,0.57 -1.32,0.83 -0.63,0.13 -1.47,0.19 -2.12,0.28 -1.52,0.23 -2.89,0.42 -4.21,0.61 -1.54,0.21 -2.74,0.39 -4.24,0.58 -1.31,0.17 -2.67,0.74 -2.67,2.14zm40.95 103.76l14.99 0 0 4.28 -14.99 0 0 -4.28zm-23.56 -8.55l8.57 0 0 12.83 -8.57 0 0 -12.83zm-29.97 8.55l14.98 0 0 4.28 -14.98 0 0 -4.28zm-10.71 -2.14c3.83,0 6.42,2.6 6.42,6.42l-12.84 0c0,-3.82 2.58,-6.42 6.42,-6.42zm97.16 -12.83c9.53,0 7.76,1.87 7.76,19.25l-4.28 0c0,-5.74 -3.09,-9.42 -8.57,-10.69 0,-3.72 -0.69,-8.56 5.09,-8.56zm-107.87 17.65l0 1.6 -4.28 0 0 -14.17c0,-5.49 4.32,-5.08 7.76,-5.08 2.16,0 3.66,0.77 4.46,2.23 0.87,1.61 0.63,3.98 0.63,6.33 -4.69,1.09 -8.57,4.92 -8.57,9.09zm47.11 -13.37l0 14.97 -6.42 0 0 -70.6 4.28 0c0,3.21 -0.66,6.42 2.14,6.42l17.13 0c2.8,0 2.14,-3.21 2.14,-6.42l4.28 0 0 70.6 -6.42 0 0 -14.97c0,-1.3 -0.85,-2.14 -2.14,-2.14l-12.85 0c-1.29,0 -2.14,0.84 -2.14,2.14zm2.14 -62.05l12.85 0 0 8.56 -12.85 0 0 -8.56zm-4.28 -2.14l0 4.28c-10.36,0 -8.57,-1.98 -8.57,12.84l-17.12 0c-1.3,0 -2.15,0.84 -2.15,2.14l0 12.83 4.29 0 0 -10.69 14.98 0 0 49.21 -14.98 0 0 -34.24 -4.29 0 0 33.7c-1.2,-0.28 -1.87,-1.04 -4.28,-1.6 0,-4.24 0.41,-6.34 -1.38,-9.05 -2.96,-4.51 -7.13,-3.79 -12,-3.79 -4.13,0 -8.03,3.89 -8.03,8.02l0 17.65c0,1.3 0.85,2.14 2.14,2.14l124.19 0c1.3,0 2.14,-0.84 2.14,-2.14l0 -17.92c0,-1.99 -1.4,-4.23 -2.46,-5.29 -3.1,-3.1 -6.29,-2.46 -10.92,-2.46 -2.97,0 -5.45,1.95 -6.65,3.79 -1.83,2.8 -1.38,4.71 -1.38,9.05 -2.41,0.56 -3.08,1.32 -4.28,1.6l0 -10.16 -4.28 0 0 10.7 -14.99 0 0 -49.21 14.99 0 0 34.23 4.28 0 0 -36.37c0,-1.3 -0.85,-2.14 -2.14,-2.14l-17.13 0 0 -10.7c0,-2.99 -4.01,-2.14 -8.57,-2.14 0,-3.21 0.66,-6.42 -2.14,-6.42l-17.13 0c-1.29,0 -2.14,0.85 -2.14,2.14z"/>
 </g>
</svg>
