<?xml version="1.0" encoding="UTF-8"?>
<!DOCTYPE svg PUBLIC "-//W3C//DTD SVG 1.1//EN" "http://www.w3.org/Graphics/SVG/1.1/DTD/svg11.dtd">
<!-- Creator: CorelDRAW -->
<svg xmlns="http://www.w3.org/2000/svg" xml:space="preserve" version="1.1" shape-rendering="geometricPrecision" text-rendering="geometricPrecision" image-rendering="optimizeQuality" fill-rule="evenodd" clip-rule="evenodd"
viewBox="0 0 49.68 40.17"
 xmlns:xlink="http://www.w3.org/1999/xlink"
 xmlns:xodm="http://www.corel.com/coreldraw/odm/2003">
 <g id="Camada_x0020_1">
  <metadata id="CorelCorpID_0Corel-Layer"/>
  <path fill="#0CC9CF" d="M25.91 25.38c0,0 -8.13,0.66 -12.66,-2.45 -4.53,-3.11 -9.64,-7.96 -13.25,-7.23 0,0 8.26,7.32 6.52,9.27 -0.22,0.25 -1.39,0.65 -2.1,0.86 -0.37,0.11 -0.68,0.34 -0.9,0.66l-0.15 0.21c-0.38,0.56 -0.39,1.29 -0.02,1.86l0 0c0.35,0.55 0.99,0.84 1.64,0.75 3.87,-0.54 17.21,-2.48 20.92,-3.93zm19.38 -7.77l-0.13 -0.7 0.53 -0.14 0.13 0.7 -0.53 0.14zm-0.97 0.25l-0.12 -0.7 0.53 -0.14 0.12 0.7 -0.53 0.14zm-0.97 0.24l-0.12 -0.69 0.53 -0.14 0.12 0.7 -0.53 0.13zm-0.96 0.25l-0.13 -0.7 0.53 -0.13 0.13 0.7 -0.53 0.13zm-0.97 0.25l-0.12 -0.7 0.53 -0.14 0.12 0.7 -0.53 0.14zm-0.97 0.25l-0.12 -0.7 0.53 -0.14 0.12 0.7 -0.53 0.14zm-0.97 0.24l-0.12 -0.69 0.53 -0.14 0.12 0.7 -0.53 0.13zm-0.96 0.25l-0.13 -0.7 0.53 -0.13 0.13 0.7 -0.53 0.13zm-0.97 0.25l-0.12 -0.7 0.53 -0.13 0.12 0.69 -0.53 0.14zm-0.97 0.25l-0.12 -0.7 0.53 -0.14 0.12 0.7 -0.53 0.14zm-0.96 0.24l-0.13 -0.69 0.53 -0.14 0.13 0.7 -0.53 0.13zm-0.97 0.25l-0.13 -0.7 0.53 -0.13 0.13 0.7 -0.53 0.13zm14.9 -3.26c-0.35,-0.59 -1.11,-1.24 -2.11,-1.81l-4.12 0.77c-0.16,0.03 -0.32,-0.08 -0.35,-0.24 -0.04,-0.2 0.05,-0.41 0.22,-0.53 0.93,-0.64 2.16,-0.91 2.16,-0.91 -0.86,-0.28 -1.77,-0.53 -2.69,-0.53 -3.13,-0.01 -10.37,2.89 -10.37,2.89l1.14 1.52 -1.78 -1.3c-3.17,-2.25 -13.74,-11.51 -14.45,-11.38 -0.35,0.07 2.95,4.22 6.31,8.37l-1.63 0.77c-0.49,0.22 -0.71,0.81 -0.48,1.3 0.23,0.5 0.82,0.71 1.31,0.48l2.08 -0.97c2.88,3.53 5.47,6.67 5.42,6.75 0,0 -2.49,-2.29 -3.89,-3.91 -7.16,1.99 -12.35,3.39 -12.35,3.39 2.25,1.34 5.4,2.06 7.77,2.44 1.9,0.31 3.83,0.33 5.73,0.06 0,0 7.33,-1.23 8.78,-1.59 9.72,-2.4 14.28,-3.92 13.3,-5.57zm-6.08 4.76c-0.88,9.08 -8.52,16.17 -17.83,16.17 -6.41,0 -12.03,-3.36 -15.2,-8.42 -0.81,0.13 -1.58,0.24 -2.31,0.35 3.44,6.11 9.99,10.24 17.51,10.24 10.74,0 19.51,-8.43 20.06,-19.03 -0.66,0.22 -1.4,0.45 -2.23,0.69zm-35.59 -4.14c1.17,-8.77 8.68,-15.52 17.76,-15.52 7.3,0 13.57,4.36 16.37,10.62 0.22,-0.02 0.44,-0.03 0.64,-0.03l0.01 0c0.62,0 1.21,0.09 1.77,0.22 -2.87,-7.59 -10.2,-12.98 -18.79,-12.98 -9.83,0 -18.01,7.06 -19.75,16.38 0.66,0.4 1.32,0.84 1.99,1.31z"/>
 </g>
</svg>
