<?xml version="1.0" encoding="UTF-8"?>
<!DOCTYPE svg PUBLIC "-//W3C//DTD SVG 1.1//EN" "http://www.w3.org/Graphics/SVG/1.1/DTD/svg11.dtd">
<!-- Creator: CorelDRAW -->
<svg xmlns="http://www.w3.org/2000/svg" xml:space="preserve" width="236px" height="236px" version="1.1" shape-rendering="geometricPrecision" text-rendering="geometricPrecision" image-rendering="optimizeQuality" fill-rule="evenodd" clip-rule="evenodd"
viewBox="0 0 93.88 93.88"
 xmlns:xlink="http://www.w3.org/1999/xlink"
 xmlns:xodm="http://www.corel.com/coreldraw/odm/2003">
 <g id="Camada_x0020_1">
  <metadata id="CorelCorpID_0Corel-Layer"/>
  <path fill="#717171" d="M49.82 65.16l-5.76 0 0 19.18 5.76 0 0 -19.18zm-22.44 -24.27l-5.95 0 0 2.39 5.95 0 0 -2.39zm0 -8.09l-5.95 0 0 4.41 5.95 0 0 -4.41zm-9.13 12.32l0 -14.16c0,-0.54 0.17,-1 0.46,-1.32 0.29,-0.33 0.71,-0.51 1.22,-0.51l8.94 0c0.51,0 0.93,0.18 1.23,0.51 0.29,0.32 0.45,0.78 0.45,1.32l0 14.16c0,0.68 -0.21,1.14 -0.58,1.43 -0.37,0.29 -0.87,0.41 -1.46,0.41l-8.21 0c-0.6,0 -1.1,-0.12 -1.46,-0.41 -0.38,-0.29 -0.59,-0.75 -0.59,-1.43zm-18.25 -15.64l0 -0.7c0.11,-1.31 0.81,-2.6 1.4,-3.71 0.14,-0.26 0.28,-0.51 0.39,-0.74 1.22,-2.44 4.33,-7.58 5.06,-9.77 0.14,-0.25 0.35,-0.64 0.61,-0.97 0.28,-0.36 0.62,-0.65 0.97,-0.65l36.87 0c0.4,0 0.83,0.18 1.15,0.44 0.31,0.26 0.53,0.61 0.53,1 0,1.81 -0.66,2.09 -1.97,2.09 -0.22,0 -0.49,-0.01 -0.79,-0.02 -0.33,-0.02 -0.69,-0.03 -1.11,-0.03l-33.45 0c-1.96,3.77 -3.96,8.07 -6.07,11.69 -0.15,0.26 -0.37,0.63 -0.37,0.86 0,0.09 0.07,0.16 0.28,0.16l8.4 0c0.17,0 1.77,-1.39 2.6,-2.11 0.21,-0.18 0.37,-0.32 0.44,-0.39 0.54,-0.44 1.01,-0.86 1.47,-1.27 0.52,-0.46 1.04,-0.92 1.61,-1.39 0.25,-0.21 0.64,-0.55 1.1,-0.97 1.71,-1.52 4.46,-3.99 5.37,-3.99 0.68,0 3.52,2.52 5.25,4.05 0.51,0.45 0.93,0.82 1.15,1 0.2,0.17 0.67,0.58 1.26,1.1 1.72,1.51 4.52,3.97 4.75,3.97l53.48 0c0.21,0 0.29,-0.07 0.29,-0.16 0,-0.23 -0.23,-0.6 -0.37,-0.85 -2.12,-3.64 -4.12,-7.92 -6.08,-11.7l-31.62 0c-0.23,0 -0.46,0.01 -0.69,0.01 -0.23,0.01 -0.46,0.02 -0.65,0.02 -1.12,0 -1.98,-0.22 -1.98,-1.67 0,-0.53 0.13,-1.01 0.44,-1.34 0.27,-0.31 0.68,-0.5 1.24,-0.5l15.84 0 0 -11.1c0,-0.55 0.16,-1 0.45,-1.32 0.3,-0.33 0.72,-0.52 1.23,-0.52l9.12 0c0.63,0 1.05,0.24 1.32,0.66 0.26,0.39 0.36,0.94 0.36,1.58l0 10.7 6.17 0c0.99,0 3.5,5.21 4.38,7.03 0.12,0.24 0.2,0.42 0.25,0.52 0.15,0.3 0.42,0.78 0.74,1.36 1.17,2.13 3.06,5.56 3.06,6.89 0,4.09 -2.98,4.07 -5.32,4.06l-0.15 0 0 17.38c0,0.58 1.81,3.99 2.96,6.16 0.38,0.73 0.69,1.31 0.85,1.63 0.1,0.21 0.21,0.41 0.32,0.62 0.6,1.1 1.23,2.28 0.71,3.91 -0.24,0.75 -0.67,1.46 -1.26,1.95 -0.53,0.44 -1.2,0.71 -1.98,0.71l-10.73 0 0 12.12c0,0.61 -0.18,1.11 -0.5,1.47 -0.33,0.36 -0.8,0.57 -1.36,0.57l-9.13 0c-0.4,0 -0.77,-0.27 -1.04,-0.66 -0.27,-0.39 -0.45,-0.91 -0.45,-1.38l0 -12.12 -3.94 0 0 19.18 22.37 0 0 -14.95c0,-0.54 0.16,-1 0.45,-1.32 0.3,-0.33 0.72,-0.52 1.23,-0.52 1.52,0 1.51,1.57 1.5,3.17l0 0.29 -0.01 13.36c0.72,0.12 1.39,0.56 1.88,1.19 0.53,0.65 0.86,1.52 0.86,2.44 0,0.4 0.02,0.82 0.03,1.26 0.02,0.5 0.04,1.02 0.04,1.49 0,1.66 -0.22,3.13 -1.38,3.13l-47.45 0c-0.8,0 -1.32,-0.46 -1.55,-1.04 -0.09,-0.22 -0.13,-0.46 -0.13,-0.7 0,-0.24 0.04,-0.48 0.13,-0.7 0.23,-0.58 0.74,-1.03 1.55,-1.03l45.59 0c0,-0.2 0.01,-0.42 0.02,-0.63 0,-0.23 0.01,-0.46 0.01,-0.71 0,-0.73 -0.08,-1.26 -0.54,-1.26l-81.03 0c-0.47,0 -0.55,0.53 -0.55,1.26 0,0.25 0.01,0.48 0.02,0.71 0,0.21 0.01,0.43 0.01,0.63l30.99 0c0.81,0 1.32,0.44 1.54,1 0.08,0.22 0.12,0.46 0.12,0.7 0,0.24 -0.05,0.48 -0.13,0.7 -0.23,0.6 -0.75,1.07 -1.53,1.07l-32.85 0c-1.16,0 -1.39,-1.51 -1.39,-3.25 0,-0.51 0.02,-1.08 0.04,-1.62 0.02,-0.49 0.04,-0.96 0.04,-1.42 0,-0.76 0.37,-1.51 0.9,-2.1 0.52,-0.58 1.19,-1 1.84,-1.12l0 -19.21c-1.91,0.01 -5.11,0 -5.11,-3.86 0,-1.15 1.46,-3.81 2.82,-6.29 1.18,-2.14 2.29,-4.15 2.29,-4.83l0 -17.38 -0.4 0.01c-1.45,0.02 -2.92,0.04 -3.97,-1.03 -0.36,-0.36 -0.62,-0.73 -0.79,-1.11 -0.18,-0.38 -0.28,-0.77 -0.32,-1.17l0 -0.02zm14.6 35.68l-5.95 0 0 19.18 22.38 0 0 -19.18 -3.94 0 0 12.12c0,0.61 -0.19,1.11 -0.51,1.47 -0.33,0.36 -0.8,0.57 -1.36,0.57l-8.76 0c-0.56,0 -1.03,-0.21 -1.35,-0.57 -0.33,-0.36 -0.51,-0.86 -0.51,-1.47l0 -12.12zm61.32 8.09l-5.76 0 0 2.39 5.76 0 0 -2.39zm-52.19 0l-5.77 0 0 2.39 5.77 0 0 -2.39zm52.19 -8.09l-5.76 0 0 4.42 5.76 0 0 -4.42zm-52.19 0l-5.77 0 0 4.42 5.77 0 0 -4.42zm16.97 19.18l0 -20.81c0,-0.66 0.22,-1.16 0.6,-1.5 0.4,-0.37 0.98,-0.54 1.63,-0.54l8.03 0c0.64,0 1.22,0.17 1.62,0.54 0.38,0.34 0.6,0.84 0.6,1.5l0 20.81 6.32 0 0 -20.28c-0.88,-0.5 -4.09,-3.3 -7.12,-5.94 -2.28,-1.98 -4.46,-3.88 -5.43,-4.63l-11.03 9.37c-0.09,0.08 -0.2,0.19 -0.32,0.3 -0.36,0.35 -0.76,0.74 -1.22,0.92l0 20.26 6.32 0zm45.17 -31.31l-34.05 0c0.43,0.4 1.23,1.12 2.19,1.95 2.42,2.11 5.78,4.93 6.55,5.57 0.33,0.28 0.53,0.48 0.68,0.63 0.14,0.13 0.22,0.21 0.31,0.25 0.13,0.07 0.34,0.07 0.89,0.07l27.68 -0.01c-0.22,-0.92 -1.23,-2.79 -1.8,-3.83l-0.22 -0.42c-0.29,-0.54 -0.56,-1.07 -0.82,-1.59 -0.46,-0.9 -0.91,-1.78 -1.41,-2.62zm-75.89 -20.19c-0.4,-0.02 -0.83,-0.04 -1.33,-0.04l0 16.55 5.44 0c0.62,0 1.09,0.24 1.4,0.59 0.21,0.24 0.35,0.54 0.41,0.85 0.05,0.3 0.04,0.63 -0.06,0.93 -0.15,0.49 -0.5,0.92 -1.05,1.16 -0.5,0.21 -1.19,0.19 -1.81,0.16 -0.19,-0.01 -0.37,-0.01 -0.53,-0.02 -1.02,0 -2.03,0 -3.04,0l-1.39 0 -3.35 6.42c-0.09,0.18 -0.19,0.36 -0.3,0.54 -0.26,0.46 -0.52,0.93 -0.62,1.51l23.3 0 4.57 0.01c0.21,0 0.36,0 0.46,0 0.12,0 0.18,0 0.2,0 0.01,-0.01 0.04,-0.03 0.1,-0.09 0.05,-0.05 0.13,-0.12 0.24,-0.21l1.62 -1.43c0.37,-0.34 1.34,-1.15 2.49,-2.12 1.97,-1.66 4.47,-3.76 5.34,-4.62l-18.86 0c-0.32,0 -0.64,0.01 -0.97,0.02 -0.38,0.02 -0.77,0.03 -1.13,0.03 -1.59,0 -3.04,-0.26 -3.04,-1.89 0,-0.53 0.2,-0.98 0.53,-1.3 0.35,-0.34 0.82,-0.54 1.33,-0.54l65.3 0 0 -16.55 -5.95 0 0 12.12c0,0.55 -0.21,1.06 -0.54,1.43 -0.34,0.37 -0.81,0.61 -1.32,0.61l-8.76 0c-0.52,0 -0.99,-0.24 -1.32,-0.61 -0.34,-0.37 -0.54,-0.88 -0.54,-1.43l0 -12.12 -10.7 0 0 12.32c0,0.68 -0.21,1.14 -0.58,1.43 -0.37,0.29 -0.87,0.41 -1.46,0.41l-8.21 0c-0.6,0 -1.1,-0.12 -1.46,-0.41 -0.37,-0.29 -0.59,-0.75 -0.59,-1.43l0 -12.32 -7.08 0c-1.01,0 -1.41,-0.35 -1.98,-0.86l-0.1 -0.09 -7.39 -6.35c-0.15,-0.13 -0.39,-0.34 -0.67,-0.59 -0.74,-0.66 -1.75,-1.57 -2.24,-1.79 -0.59,0.45 -1.16,0.95 -1.74,1.47 -0.37,0.32 -0.75,0.66 -1.15,0.99l-7.39 6.36c-1.16,1 -2.33,0.96 -4.08,0.9zm65.94 8.05l-5.76 0 0 2.39 5.76 0 0 -2.39zm-22.99 0l-5.95 0 0 2.39 5.95 0 0 -2.39zm22.99 -8.09l-5.76 0 0 4.41 5.76 0 0 -4.41zm-22.99 0l-5.95 0 0 4.41 5.95 0 0 -4.41zm22.99 -29.33l-5.76 0 0 9.47 5.76 0 0 -9.47z"/>
 </g>
</svg>
