<?xml version="1.0" encoding="UTF-8"?>
<!DOCTYPE svg PUBLIC "-//W3C//DTD SVG 1.1//EN" "http://www.w3.org/Graphics/SVG/1.1/DTD/svg11.dtd">
<!-- Creator: CorelDRAW -->
<svg xmlns="http://www.w3.org/2000/svg" xml:space="preserve" version="1.1" shape-rendering="geometricPrecision" text-rendering="geometricPrecision" image-rendering="optimizeQuality" fill-rule="evenodd" clip-rule="evenodd"
viewBox="0 0 545.32 133.17"
 xmlns:xlink="http://www.w3.org/1999/xlink"
 xmlns:xodm="http://www.corel.com/coreldraw/odm/2003">
 <g id="Camada_x0020_1">
  <metadata id="CorelCorpID_0Corel-Layer"/>
  <g id="_2154054434112">
   <path fill="#590BD8" d="M85.88 84.13c0,0 -26.93,2.21 -41.95,-8.11 -15.01,-10.31 -31.97,-26.38 -43.93,-23.98 0,0 27.39,24.26 21.61,30.75 -0.73,0.81 -4.59,2.13 -6.97,2.85 -1.2,0.36 -2.24,1.13 -2.96,2.16l-0.5 0.73c-1.26,1.85 -1.3,4.27 -0.09,6.15l0.01 0.01c1.17,1.82 3.29,2.79 5.43,2.49 12.84,-1.81 57.08,-8.24 69.35,-13.05zm64.26 -25.76l-0.41 -2.31 1.76 -0.45 0.41 2.31 -1.76 0.45zm-3.21 0.82l-0.41 -2.31 1.76 -0.45 0.41 2.31 -1.76 0.45zm-3.21 0.82l-0.41 -2.31 1.76 -0.45 0.41 2.32 -1.76 0.44zm-3.2 0.83l-0.41 -2.32 1.76 -0.45 0.41 2.32 -1.76 0.45zm-3.21 0.82l-0.41 -2.32 1.76 -0.45 0.41 2.32 -1.76 0.45zm-3.21 0.82l-0.41 -2.31 1.76 -0.46 0.41 2.32 -1.76 0.45zm-3.2 0.82l-0.41 -2.31 1.76 -0.45 0.41 2.31 -1.76 0.45zm-3.21 0.82l-0.41 -2.31 1.76 -0.45 0.41 2.31 -1.76 0.45zm-3.21 0.82l-0.41 -2.31 1.76 -0.45 0.41 2.31 -1.76 0.45zm-3.2 0.82l-0.41 -2.31 1.76 -0.45 0.41 2.31 -1.76 0.45zm-3.21 0.82l-0.41 -2.31 1.76 -0.45 0.41 2.31 -1.76 0.45zm-3.21 0.83l-0.41 -2.32 1.76 -0.45 0.41 2.31 -1.76 0.46zm49.42 -10.82c-1.16,-1.96 -3.69,-4.12 -7,-5.99l-13.67 2.54c-0.54,0.1 -1.05,-0.25 -1.15,-0.79 -0.12,-0.67 0.15,-1.36 0.72,-1.76 3.09,-2.14 7.15,-3.03 7.15,-3.03 -2.83,-0.93 -5.86,-1.75 -8.9,-1.76 -10.4,-0.02 -34.38,9.59 -34.38,9.59l3.77 5.04 -5.91 -4.3c-10.51,-7.48 -45.55,-38.16 -47.88,-37.72 -1.18,0.22 9.76,13.99 20.92,27.74l-5.42 2.54c-1.63,0.76 -2.34,2.7 -1.58,4.33 0.76,1.63 2.71,2.34 4.34,1.58l6.91 -3.23c9.54,11.72 18.11,22.12 17.94,22.39 0,0 -8.23,-7.59 -12.89,-12.94 -23.74,6.59 -40.92,11.22 -40.92,11.22 7.44,4.43 17.89,6.83 25.76,8.09 6.28,1.02 12.68,1.08 18.99,0.2 0,0 24.28,-4.08 29.11,-5.28 32.2,-7.95 47.32,-12.97 44.09,-18.46zm-20.16 15.79c-2.91,30.09 -28.27,53.61 -59.13,53.61 -21.24,0 -39.87,-11.15 -50.37,-27.92 -2.69,0.41 -5.26,0.8 -7.67,1.16 11.42,20.26 33.13,33.94 58.04,33.94 35.6,0 64.67,-27.93 66.5,-63.07 -2.18,0.72 -4.63,1.48 -7.37,2.28zm-118 -13.75c3.89,-29.05 28.77,-51.45 58.87,-51.45 24.2,0 45.01,14.46 54.27,35.21 0.76,-0.06 1.47,-0.1 2.13,-0.1l0.05 0c2.03,0.01 4,0.31 5.85,0.74 -9.51,-25.15 -33.81,-43.03 -62.3,-43.03 -32.58,0 -59.69,23.4 -65.45,54.31 2.18,1.32 4.38,2.77 6.58,4.32z"/>
   <path fill="#590BD8" fill-rule="nonzero" d="M208.96 48.55c1.52,-2.26 3.62,-4.1 6.31,-5.51 2.68,-1.41 5.74,-2.11 9.18,-2.11 4.01,0 7.64,0.98 10.89,2.96 3.24,1.98 5.81,4.78 7.7,8.43 1.89,3.64 2.84,7.86 2.84,12.66 0,4.8 -0.95,9.04 -2.84,12.74 -1.89,3.7 -4.46,6.57 -7.7,8.6 -3.25,2.03 -6.88,3.05 -10.89,3.05 -3.5,0 -6.56,-0.7 -9.18,-2.08 -2.63,-1.38 -4.73,-3.17 -6.31,-5.38l0 6.69 -11.86 0 0 -62.66 11.86 0 0 22.61zm24.81 16.43c0,-2.83 -0.58,-5.27 -1.74,-7.33 -1.15,-2.06 -2.68,-3.63 -4.57,-4.7 -1.89,-1.07 -3.94,-1.61 -6.14,-1.61 -2.14,0 -4.16,0.55 -6.05,1.65 -1.9,1.1 -3.42,2.7 -4.58,4.79 -1.15,2.09 -1.73,4.54 -1.73,7.37 0,2.82 0.58,5.28 1.73,7.36 1.16,2.09 2.68,3.69 4.58,4.79 1.89,1.1 3.91,1.65 6.05,1.65 2.2,0 4.25,-0.56 6.14,-1.69 1.89,-1.13 3.42,-2.74 4.57,-4.83 1.16,-2.09 1.74,-4.57 1.74,-7.45z"/>
   <path id="_1" fill="#590BD8" fill-rule="nonzero" d="M298.13 64.13c0,1.69 -0.11,3.22 -0.34,4.57l-34.3 0c0.29,3.39 1.47,6.04 3.56,7.96 2.09,1.92 4.66,2.88 7.71,2.88 4.4,0 7.53,-1.89 9.4,-5.67l12.78 0c-1.35,4.52 -3.95,8.23 -7.79,11.14 -3.84,2.9 -8.55,4.36 -14.14,4.36 -4.52,0 -8.57,-1.01 -12.15,-3.01 -3.59,-2 -6.38,-4.84 -8.38,-8.51 -2.01,-3.67 -3.01,-7.9 -3.01,-12.7 0,-4.86 0.99,-9.12 2.96,-12.79 1.98,-3.67 4.75,-6.49 8.3,-8.47 3.56,-1.98 7.65,-2.96 12.28,-2.96 4.46,0 8.46,0.96 11.98,2.88 3.53,1.92 6.27,4.64 8.22,8.17 1.95,3.53 2.92,7.58 2.92,12.15zm-12.28 -3.39c-0.06,-3.05 -1.16,-5.49 -3.3,-7.32 -2.15,-1.84 -4.77,-2.75 -7.88,-2.75 -2.93,0 -5.4,0.88 -7.41,2.66 -2,1.78 -3.23,4.25 -3.68,7.41l22.27 0z"/>
   <path id="_2" fill="#590BD8" fill-rule="nonzero" d="M324.72 89.37c-3.84,0 -7.28,-0.7 -10.33,-2.08 -3.05,-1.38 -5.46,-3.26 -7.24,-5.63 -1.78,-2.37 -2.75,-5 -2.92,-7.88l11.94 0c0.22,1.81 1.11,3.31 2.66,4.49 1.56,1.19 3.49,1.78 5.81,1.78 2.25,0 4.02,-0.45 5.29,-1.35 1.27,-0.91 1.9,-2.06 1.9,-3.48 0,-1.52 -0.77,-2.66 -2.32,-3.43 -1.56,-0.76 -4.03,-1.59 -7.42,-2.49 -3.5,-0.85 -6.36,-1.73 -8.59,-2.63 -2.23,-0.9 -4.15,-2.29 -5.76,-4.15 -1.61,-1.86 -2.41,-4.37 -2.41,-7.54 0,-2.59 0.75,-4.96 2.24,-7.11 1.5,-2.14 3.64,-3.84 6.44,-5.08 2.79,-1.24 6.08,-1.86 9.86,-1.86 5.59,0 10.05,1.39 13.38,4.19 3.34,2.79 5.17,6.56 5.51,11.3l-11.35 0c-0.17,-1.86 -0.94,-3.34 -2.33,-4.44 -1.38,-1.1 -3.23,-1.65 -5.55,-1.65 -2.14,0 -3.79,0.39 -4.95,1.18 -1.16,0.79 -1.73,1.89 -1.73,3.3 0,1.59 0.78,2.79 2.37,3.6 1.58,0.82 4.03,1.66 7.36,2.5 3.39,0.85 6.19,1.72 8.39,2.63 2.2,0.9 4.1,2.3 5.71,4.19 1.61,1.89 2.45,4.39 2.5,7.49 0,2.71 -0.75,5.14 -2.24,7.29 -1.5,2.14 -3.64,3.82 -6.44,5.04 -2.79,1.21 -6.05,1.82 -9.78,1.82z"/>
   <path id="_3" fill="#590BD8" fill-rule="nonzero" d="M366.72 51.43l0 22.69c0,1.58 0.39,2.73 1.15,3.43 0.76,0.71 2.04,1.06 3.85,1.06l5.5 0 0 9.99 -7.45 0c-9.99,0 -14.99,-4.85 -14.99,-14.56l0 -22.61 -5.59 0 0 -9.74 5.59 0 0 -11.6 11.94 0 0 11.6 10.5 0 0 9.74 -10.5 0z"/>
   <path id="_4" fill="#590BD8" fill-rule="nonzero" d="M419.74 51.43l0 22.69c0,1.58 0.38,2.73 1.14,3.43 0.76,0.71 2.05,1.06 3.85,1.06l5.51 0 0 9.99 -7.46 0c-9.99,0 -14.98,-4.85 -14.98,-14.56l0 -22.61 -5.59 0 0 -9.74 5.59 0 0 -11.6 11.94 0 0 11.6 10.5 0 0 9.74 -10.5 0z"/>
   <path id="_5" fill="#590BD8" fill-rule="nonzero" d="M450.65 48.97c1.52,-2.48 3.51,-4.43 5.97,-5.84 2.45,-1.41 5.26,-2.12 8.42,-2.12l0 12.45 -3.13 0c-3.73,0 -6.54,0.87 -8.43,2.63 -1.89,1.75 -2.83,4.79 -2.83,9.14l0 23.37 -11.86 0 0 -46.91 11.86 0 0 7.28z"/>
   <path id="_6" fill="#590BD8" fill-rule="nonzero" d="M479.01 36.1c-2.08,0 -3.82,-0.66 -5.2,-1.99 -1.39,-1.33 -2.08,-2.98 -2.08,-4.95 0,-1.98 0.69,-3.63 2.08,-4.96 1.38,-1.32 3.12,-1.99 5.2,-1.99 2.09,0 3.83,0.67 5.21,1.99 1.39,1.33 2.08,2.98 2.08,4.96 0,1.97 -0.69,3.62 -2.08,4.95 -1.38,1.33 -3.12,1.99 -5.21,1.99zm5.85 5.59l0 46.91 -11.86 0 0 -46.91 11.86 0z"/>
   <path id="_7" fill="#590BD8" fill-rule="nonzero" d="M508.4 48.46c1.53,-2.14 3.63,-3.93 6.31,-5.37 2.68,-1.44 5.74,-2.16 9.19,-2.16 4.01,0 7.63,0.98 10.88,2.96 3.25,1.98 5.81,4.78 7.71,8.43 1.89,3.64 2.83,7.86 2.83,12.66 0,4.8 -0.94,9.04 -2.83,12.74 -1.9,3.7 -4.46,6.57 -7.71,8.6 -3.25,2.03 -6.87,3.05 -10.88,3.05 -3.45,0 -6.48,-0.71 -9.11,-2.12 -2.62,-1.41 -4.75,-3.19 -6.39,-5.34l0 29.05 -11.85 0 0 -69.27 11.85 0 0 6.77zm24.81 16.52c0,-2.83 -0.58,-5.27 -1.73,-7.33 -1.16,-2.06 -2.68,-3.63 -4.58,-4.7 -1.89,-1.07 -3.93,-1.61 -6.14,-1.61 -2.14,0 -4.16,0.55 -6.05,1.65 -1.89,1.1 -3.42,2.7 -4.57,4.79 -1.16,2.09 -1.74,4.54 -1.74,7.37 0,2.82 0.58,5.28 1.74,7.36 1.15,2.09 2.68,3.69 4.57,4.79 1.89,1.1 3.91,1.65 6.05,1.65 2.21,0 4.25,-0.56 6.14,-1.69 1.9,-1.13 3.42,-2.74 4.58,-4.83 1.15,-2.09 1.73,-4.57 1.73,-7.45z"/>
  </g>
 </g>
</svg>
