<?xml version="1.0" encoding="UTF-8"?>
<!DOCTYPE svg PUBLIC "-//W3C//DTD SVG 1.1//EN" "http://www.w3.org/Graphics/SVG/1.1/DTD/svg11.dtd">
<!-- Creator: CorelDRAW -->
<svg xmlns="http://www.w3.org/2000/svg" xml:space="preserve" version="1.1" shape-rendering="geometricPrecision" text-rendering="geometricPrecision" image-rendering="optimizeQuality" fill-rule="evenodd" clip-rule="evenodd"
viewBox="0 0 48.88 48.88"
 xmlns:xlink="http://www.w3.org/1999/xlink"
 xmlns:xodm="http://www.corel.com/coreldraw/odm/2003">
 <g id="Camada_x0020_1">
  <metadata id="CorelCorpID_0Corel-Layer"/>
  <path fill="#717171" d="M14.31 37.42l20.25 0.01 0 1.61c-0.21,0.03 -1,-0.07 -1.29,-0.07 -0.44,-0.02 -0.9,-0.02 -1.35,-0.02 -0.86,0.01 -1.71,0.07 -2.55,0.19 -0.79,0.12 -1.54,0.3 -2.34,0.42 -1.47,0.21 -3.71,0.21 -5.18,0 -0.8,-0.12 -1.55,-0.3 -2.34,-0.42 -0.85,-0.12 -1.68,-0.17 -2.56,-0.19 -0.44,0 -0.9,0 -1.34,0.02 -0.29,0 -1.09,0.1 -1.29,0.07l-0.01 -1.62zm18.87 -28.01c0.05,-0.45 -0.17,-0.74 -0.49,-0.86 -0.37,-0.14 -0.75,0.09 -1.06,0.22 -0.26,0.12 -1.23,0.49 -1.42,0.64 -0.38,0.29 -0.4,1.06 0.22,1.3 0.44,0.16 0.76,-0.13 1.01,-0.3 0.42,-0.29 0.82,-0.54 1.29,-0.77 0.12,-0.07 0.35,-0.17 0.45,-0.23zm-16.8 -0.89c-0.35,0.08 -0.62,0.36 -0.61,0.77 0,0.21 0.06,0.18 0.37,0.34 0.47,0.24 0.85,0.46 1.29,0.77 0.22,0.16 0.6,0.43 1.02,0.33 0.32,-0.08 0.59,-0.38 0.57,-0.78 -0.02,-0.43 -0.3,-0.59 -0.64,-0.74 -0.32,-0.13 -0.65,-0.26 -0.97,-0.4 -0.26,-0.12 -0.71,-0.36 -1.03,-0.29zm11.26 -4.74c-0.43,0.06 -0.54,0.33 -0.69,0.69 -0.14,0.33 -0.26,0.66 -0.4,0.98 -0.12,0.28 -0.35,0.7 -0.24,1.06 0.1,0.32 0.43,0.59 0.85,0.52 0.41,-0.06 0.54,-0.36 0.68,-0.7 0.13,-0.33 0.26,-0.66 0.4,-0.98 0.12,-0.3 0.35,-0.69 0.23,-1.06 -0.1,-0.3 -0.41,-0.57 -0.83,-0.51zm-6.66 0.01c-0.35,0.07 -0.63,0.36 -0.61,0.77 0,0.23 0.63,1.67 0.76,1.98 0.34,0.85 1.52,0.54 1.48,-0.3 -0.02,-0.21 -0.28,-0.81 -0.37,-1.01 -0.14,-0.34 -0.26,-0.64 -0.4,-0.98 -0.12,-0.27 -0.44,-0.55 -0.86,-0.46zm11.4 -0.11c-0.34,0.07 -0.51,0.34 -0.69,0.52l-2.7 2.74c-0.11,0.11 -0.2,0.18 -0.32,0.3 -0.49,0.51 -0.03,1.45 0.74,1.27 0.29,-0.07 0.53,-0.36 0.68,-0.52l1.19 -1.22c0.55,-0.55 1.32,-1.29 1.81,-1.83 0.51,-0.56 0.03,-1.42 -0.71,-1.26zm-16.23 0.01c-0.3,0.09 -0.53,0.29 -0.57,0.64 -0.05,0.42 0.24,0.64 0.4,0.82 0.4,0.4 0.79,0.82 1.2,1.22l1.8 1.81c0.68,0.72 1.36,0.19 1.42,-0.31 0.05,-0.45 -0.22,-0.64 -0.41,-0.83 -0.56,-0.56 -1.22,-1.27 -1.78,-1.83l-1.21 -1.21c-0.18,-0.18 -0.42,-0.43 -0.85,-0.31zm8.44 -3.69l-0.3 0c-0.14,0.09 -0.36,0.1 -0.53,0.42 -0.13,0.24 -0.08,0.59 -0.08,0.88l0 3.82c0,0.32 -0.04,0.57 0.12,0.81 0.31,0.46 0.96,0.45 1.26,0.02 0.18,-0.25 0.14,-0.5 0.14,-0.83l0 -3.82c0,-0.29 0.04,-0.63 -0.07,-0.87 -0.16,-0.32 -0.4,-0.34 -0.54,-0.43zm-3.96 14.03c0.57,-0.48 0.27,-0.65 0.47,-1.48 0.65,-2.68 4.15,-3.61 6.01,-1.34 0.59,0.72 0.71,1.31 0.77,2.21 0.02,0.32 0.19,0.46 0.37,0.61 0.05,-0.06 0.1,-0.37 0.17,-0.55 0.07,-0.18 0.16,-0.33 0.25,-0.47l0.49 -0.57c0.07,-0.07 0.13,-0.11 0.11,-0.23 -0.12,-0.68 -0.62,-1.53 -0.95,-1.94 -1.4,-1.75 -3.98,-2.47 -6.17,-1.31 -1.23,0.66 -2.22,1.84 -2.53,3.23 -0.05,0.19 0.09,0.21 0.25,0.42 0.11,0.13 0.22,0.23 0.33,0.39 0.34,0.5 0.3,0.7 0.39,0.95 0.06,0.18 -0.07,-0.12 0.01,0.04 0.01,0.01 0.01,0.01 0.02,0.02 0,0 0,0.01 0.01,0.02zm-20.63 33.15l0 0.34 0.09 0.19c0.29,0.55 0.98,0.4 1.62,0.42 0.72,0.03 1.41,0.09 2.11,0.21 1.09,0.19 1.9,0.39 3.03,0.47 0.19,0.02 0.97,0.04 1.08,0.07l1.45 0c0.1,-0.03 0.73,-0.04 0.9,-0.05 2.32,-0.17 3.35,-0.71 6.06,-0.71 1.26,-0.01 2.38,0.05 3.58,0.28 0.56,0.11 1.09,0.21 1.65,0.3 0.49,0.07 1.05,0.12 1.55,0.14l0.17 0.02c0.01,0 0.02,0 0.02,0 0.01,0.01 0.02,0.01 0.03,0.01 0,0 0.01,0 0.02,0.01l1.9 0 1.8 -0.15c0.59,-0.08 1.13,-0.19 1.7,-0.29 2.38,-0.45 4.85,-0.44 7.23,0.01 1.01,0.2 1.55,0.3 2.58,0.37 0.18,0.02 0.82,0.03 0.93,0.06l1.44 0c0.11,-0.03 0.88,-0.05 1.07,-0.07 1.87,-0.13 2.99,-0.59 5.14,-0.68 0.29,-0.01 0.88,0.02 1.13,-0.03 0.26,-0.06 0.45,-0.24 0.54,-0.47 0.03,-0.06 0,0 0.03,-0.06 0.02,-0.05 0.01,-0.03 0.03,-0.05l0 -0.34c-0.02,-0.02 -0.01,0 -0.03,-0.05 -0.26,-0.52 -0.42,-0.55 -1.12,-0.54 -2.06,0.03 -2.58,0.22 -4.56,0.55 -1.92,0.32 -4.43,0.29 -6.33,-0.08 -1,-0.19 -1.93,-0.37 -2.98,-0.43 -4.71,-0.28 -5.53,0.72 -9.42,0.72 -3.9,0 -4.81,-1.01 -9.45,-0.72 -1.06,0.07 -1.97,0.25 -2.98,0.44 -1.9,0.35 -4.39,0.39 -6.33,0.06 -1.94,-0.32 -2.54,-0.52 -4.56,-0.54 -0.29,0 -0.53,-0.03 -0.75,0.11 -0.28,0.17 -0.3,0.38 -0.37,0.48zm0 -3.76l0 0.24c0.13,0.26 0.08,0.33 0.34,0.5 0.2,0.15 0.45,0.13 0.73,0.14 2.17,0.02 2.58,0.26 4.56,0.55 1.98,0.3 4.41,0.29 6.38,-0.05 1.01,-0.17 1.91,-0.38 2.96,-0.45 1.07,-0.08 2.26,-0.08 3.33,0.01 1.03,0.08 1.94,0.31 2.94,0.47 1.9,0.3 4.48,0.31 6.38,0 1,-0.16 1.91,-0.38 2.95,-0.47 1.05,-0.09 2.23,-0.09 3.29,-0.02 1.07,0.08 1.97,0.28 2.99,0.46 1.98,0.35 4.36,0.34 6.38,0.06 0.98,-0.14 1.91,-0.39 2.93,-0.48 0.53,-0.05 1.08,-0.08 1.62,-0.08 0.29,-0.01 0.53,0.02 0.75,-0.13 0.26,-0.17 0.21,-0.24 0.35,-0.51l0 -0.24c-0.13,-0.27 -0.09,-0.35 -0.34,-0.52 -0.2,-0.14 -0.45,-0.13 -0.73,-0.13 -0.54,0 -1.1,0.03 -1.63,0.07 -1.05,0.1 -1.95,0.3 -2.95,0.47 -1.94,0.33 -4.42,0.3 -6.35,-0.06 -2.41,-0.44 -3.78,-0.6 -6.31,-0.42 -2.36,0.16 -3.03,0.7 -6.13,0.7 -3.04,0 -3.78,-0.53 -6.14,-0.7 -2.48,-0.19 -3.95,-0.02 -6.31,0.42 -1.92,0.36 -4.4,0.39 -6.34,0.06 -1.9,-0.32 -2.62,-0.53 -4.61,-0.54 -0.3,0 -0.5,-0.02 -0.72,0.14 -0.24,0.17 -0.19,0.24 -0.32,0.51zm22.15 -7.52c-0.02,-0.5 -0.01,-1.04 0,-1.53 0.01,-0.47 0.13,-0.86 0.33,-1.2 1.15,-1.9 4.2,-1.2 4.25,1.2 0.01,0.49 0.01,1.03 0.03,1.53l-4.61 0zm-5.72 -8.41l16.03 0 0 8.41 -4.2 0c-0.02,-0.71 0.06,-1.56 -0.07,-2.23 -0.22,-1.2 -0.92,-2.08 -1.93,-2.65 -1.08,-0.62 -2.56,-0.62 -3.65,0 -0.56,0.32 -0.85,0.58 -1.22,1.06 -0.32,0.41 -0.59,0.96 -0.7,1.59 -0.13,0.67 -0.05,1.52 -0.07,2.23l-4.2 -0.01 0.01 -8.4zm-1.38 -1.53c0.39,-0.39 1.8,-1.55 2.35,-2.04 0.4,-0.35 0.79,-0.68 1.17,-1.02l0.89 -0.77c0.09,-0.07 0.2,-0.17 0.28,-0.25l1.17 -1.02c0.39,-0.32 0.78,-0.66 1.18,-1.01l1.76 -1.52c0.1,-0.08 0.21,-0.18 0.3,-0.27l0.29 -0.24c0.08,0.05 0.07,0.06 0.15,0.13 0.06,0.05 0.09,0.07 0.15,0.13 0.08,0.07 0.21,0.19 0.3,0.26l2.35 2.03c0.43,0.41 1.36,1.14 1.76,1.52 0.18,0.18 0.4,0.34 0.59,0.51l3.81 3.31c0.09,0.09 0.19,0.16 0.28,0.26l-18.78 -0.01zm32.29 11.16c0,0.44 0.03,1.53 -0.03,1.84 -1.26,0.08 -1.78,0.1 -3,0.33 -0.3,0.06 -0.65,0.15 -0.93,0.17 0.04,-0.51 0.15,-1.11 0.21,-1.61 0.22,-1.81 0.33,-3.7 0.33,-5.52 0,-4.26 -0.64,-9.09 -1.92,-13.11 -0.19,-0.61 -0.38,-1.2 -0.6,-1.79l-0.65 -1.72c0.13,-0.13 0.26,-0.25 0.52,-0.21 0.21,0.38 0.43,0.71 0.65,1.08 1.5,2.46 2.8,5.72 3.63,8.49 1.1,3.64 1.79,7.95 1.79,12.05zm-45.77 1.84c-0.08,-0.38 -0.03,-1.38 -0.03,-1.82 -0.01,-3.64 0.59,-7.92 1.58,-11.34 0.85,-2.94 1.76,-5.33 3.13,-7.97 0.22,-0.41 0.44,-0.81 0.67,-1.19l0.69 -1.14c0.25,-0.03 0.43,0.09 0.58,0.26 -0.02,0.13 -0.17,0.45 -0.24,0.62l-0.7 1.87c-0.29,0.85 -0.56,1.74 -0.79,2.64 -1.44,5.45 -1.86,11.42 -1.18,17.06 0.05,0.48 0.15,1.03 0.19,1.5 -0.19,-0.01 -1.46,-0.27 -1.88,-0.32 -0.68,-0.1 -1.32,-0.13 -2.02,-0.17zm1.59 -30.3c1.04,-0.03 2.06,0.17 2.87,0.56 1.22,0.59 1.69,1.31 1.95,1.46 0.57,0.32 0.92,-0.12 1.17,-0.35 0.55,-0.5 1.11,-1.27 1.49,-1.93 0.07,-0.1 0.58,-1.08 0.6,-1.09 0.19,3.14 -0.82,2.97 -0.64,3.76 0.25,1.06 1.37,0.17 3.47,0.98 0.35,0.14 0.7,0.3 1,0.47 0.41,0.24 0.6,0.4 0.88,0.58 -0.18,0.01 -0.5,-0.05 -0.7,-0.07 -1.22,-0.12 -2.47,-0.16 -3.68,-0.01 -0.5,0.06 -0.82,0.16 -0.93,0.6 -0.14,0.5 0.22,0.75 0.45,1.05 0.68,0.94 1.17,2.36 1.08,3.56 -0.08,-0.07 -0.29,-0.46 -0.36,-0.58 -0.47,-0.71 -0.65,-0.97 -1.18,-1.63 -0.23,-0.28 -0.85,-0.95 -1.16,-1.2 -0.09,-0.07 -0.17,-0.14 -0.25,-0.21 -0.35,-0.27 -0.75,-0.62 -1.23,-0.64 -0.84,-0.03 -1.71,0.1 -2.51,0.29 -0.74,0.19 -1.42,0.41 -2.13,0.68 -0.21,0.08 -0.45,0.2 -0.66,0.25 0.28,-0.52 1.39,-1.4 1.97,-1.73 1.03,-0.59 1.77,-0.62 2,-0.77 0.41,-0.25 0.51,-0.8 0.1,-1.22 -0.85,-0.87 -1.49,-1.36 -2.51,-2.08l-1.09 -0.73zm39.09 4.05c0.23,0.13 0.93,0.15 1.99,0.76 0.56,0.33 1.67,1.21 1.95,1.73 -0.3,-0.1 -0.93,-0.37 -1.38,-0.52 -1.26,-0.42 -2.62,-0.77 -3.98,-0.71 -0.31,0.02 -0.45,0.13 -0.65,0.27 -0.2,0.13 -0.37,0.25 -0.55,0.39 -0.08,0.07 -0.2,0.16 -0.26,0.22 -0.1,0.09 -0.16,0.14 -0.24,0.22 -0.68,0.67 -1.15,1.25 -1.69,2.03l-0.73 1.13c-0.07,-0.82 0.22,-1.95 0.51,-2.6 0.53,-1.19 1.2,-1.35 1.02,-2.01 -0.12,-0.45 -0.45,-0.54 -0.95,-0.6 -1.02,-0.13 -1.96,-0.11 -2.98,-0.05 -0.24,0.02 -0.47,0.04 -0.71,0.06 -0.19,0.02 -0.49,0.08 -0.68,0.07l0.44 -0.31c0.16,-0.1 0.29,-0.18 0.46,-0.28 1.07,-0.6 2.3,-0.92 3.6,-0.86 0.47,0.02 0.78,-0.2 0.86,-0.61 0.16,-0.75 -0.85,-0.71 -0.64,-3.73 0.02,0.01 0.54,1 0.6,1.11 0.23,0.38 0.45,0.69 0.69,1.02 0.22,0.3 0.95,1.14 1.29,1.28 0.57,0.25 0.9,-0.25 1.14,-0.47 0.48,-0.43 0.88,-0.75 1.51,-1.04 0.8,-0.38 1.83,-0.59 2.85,-0.55 -0.05,0.07 -0.46,0.3 -0.56,0.37 -0.57,0.39 -1.06,0.72 -1.61,1.15 -0.67,0.53 -0.9,0.77 -1.46,1.31 -0.37,0.37 -0.29,0.97 0.16,1.22zm-42.25 -4.64l0 0.3c0.07,0.11 0.09,0.22 0.18,0.33 0.08,0.11 0.16,0.15 0.3,0.22 0.72,0.38 1.24,0.66 1.93,1.09 0.23,0.15 2.17,1.43 2.35,1.7 -0.73,0.29 -1.39,0.73 -1.95,1.18 -0.55,0.45 -0.51,0.49 -0.94,0.89l-0.56 0.69c-0.18,0.25 -0.32,0.45 -0.49,0.73 -0.22,0.36 -0.47,0.83 -0.64,1.22 -0.05,0.11 -0.13,0.34 -0.18,0.43l0 0.3c0.07,0.12 0.08,0.22 0.18,0.34 0.3,0.38 0.75,0.28 1.11,0.09 1.06,-0.58 3.17,-1.54 4.32,-1.77 -0.03,0.1 -0.24,0.44 -0.31,0.54 -0.29,0.51 -0.59,1.08 -0.86,1.61 -0.36,0.72 -0.7,1.5 -1.04,2.27 -1.33,3.08 -2.38,6.91 -2.88,10.3 -0.22,1.45 -0.39,3.03 -0.46,4.5 -0.01,0.25 -0.02,1.45 -0.06,1.57l0 3.26c0.05,0.09 0.06,0.19 0.13,0.28 0.26,0.37 0.57,0.33 0.96,0.34 0.55,0.01 1.09,0.03 1.63,0.08 1.02,0.09 1.94,0.33 2.93,0.48 1.98,0.3 4.43,0.27 6.38,-0.06 1.03,-0.18 1.89,-0.37 2.96,-0.45 1.04,-0.09 2.25,-0.07 3.29,0.01 1.05,0.08 1.95,0.3 2.96,0.47 1.06,0.17 2.1,0.23 3.2,0.23 1.09,0 2.13,-0.06 3.18,-0.23 1,-0.16 1.91,-0.38 2.95,-0.47 1.05,-0.08 2.23,-0.1 3.29,-0.02 1.08,0.08 1.96,0.28 2.98,0.46 1.98,0.33 4.37,0.36 6.37,0.06 0.99,-0.14 1.91,-0.38 2.93,-0.48 0.54,-0.05 1.07,-0.07 1.62,-0.08 0.28,-0.01 0.53,0.02 0.75,-0.12 0.28,-0.16 0.29,-0.36 0.37,-0.5l0 -3.26c-0.04,-0.12 -0.05,-1.34 -0.07,-1.59 -0.02,-0.52 -0.06,-1.03 -0.1,-1.53 -0.35,-4.48 -1.53,-9.21 -3.25,-13.29 -0.73,-1.72 -1.29,-2.79 -2.2,-4.37 0.24,0 1.27,0.38 1.54,0.48 0.88,0.32 1.97,0.84 2.79,1.28 0.25,0.13 0.48,0.25 0.81,0.12 0.36,-0.14 0.37,-0.37 0.48,-0.55l0 -0.3c-0.06,-0.09 -0.13,-0.32 -0.19,-0.45 -0.06,-0.14 -0.13,-0.27 -0.2,-0.41 -0.25,-0.52 -0.61,-1.1 -0.94,-1.55 -0.25,-0.34 -0.57,-0.7 -0.87,-0.99 -0.69,-0.7 -1.65,-1.37 -2.57,-1.74 0.07,-0.09 0.44,-0.37 0.56,-0.46 1.2,-0.92 2.41,-1.64 3.75,-2.34 0.37,-0.19 0.31,-0.3 0.46,-0.54l0 -0.3c-0.2,-0.36 -0.13,-0.51 -0.76,-0.64 -2.3,-0.5 -4.82,-0.44 -6.81,0.91 -0.26,0.17 -0.53,0.42 -0.78,0.6 -0.11,-0.05 -0.4,-0.44 -0.49,-0.56 -0.14,-0.2 -0.28,-0.4 -0.42,-0.63 -0.53,-0.86 -0.97,-1.85 -1.26,-2.86 -0.17,-0.57 -0.21,-1.16 -0.81,-1.25 -0.34,-0.06 -0.62,0.13 -0.74,0.3 -0.14,0.2 -0.2,0.52 -0.27,0.79 -0.37,1.47 -0.61,3.07 -0.37,4.59 0.03,0.24 0.16,0.66 0.17,0.83 -1.41,0.19 -2.41,0.5 -3.46,1.14 -0.48,0.29 -0.94,0.62 -1.35,0.97 -0.22,0.18 -0.4,0.35 -0.61,0.54l-0.84 0.89c-0.09,0.11 -0.17,0.17 -0.24,0.34 -0.13,0.34 0.01,0.68 0.19,0.85 0.25,0.23 0.51,0.22 0.9,0.13 1.35,-0.3 3.85,-0.69 5.17,-0.55 -0.1,0.25 -0.25,0.47 -0.35,0.72 -0.72,1.74 -0.7,3.74 -0.28,5.56 0.08,0.34 0.13,0.53 0.36,0.69 0.25,0.17 0.55,0.2 0.84,0.04 0.24,-0.14 0.3,-0.34 0.43,-0.64 0.21,-0.49 0.46,-0.97 0.71,-1.42 0.34,-0.61 1.14,-1.94 1.66,-2.47l0.08 -0.07c0.27,0.8 0.6,1.6 0.85,2.43 1.42,4.67 2.12,9.43 1.97,14.38 -0.04,1.04 -0.1,2.07 -0.2,3.1 -0.09,0.98 -0.25,1.92 -0.37,2.88 -1.01,0.05 -1.98,0.08 -3,0.01 -0.53,-0.03 -2.29,-0.21 -2.72,-0.4l0.01 -1.84c0.41,-0.08 1.95,0.03 2.53,-0.01 0.76,-0.05 0.96,-1.05 0.33,-1.42 -0.28,-0.16 -0.81,-0.1 -1.17,-0.1 -1.27,0 -2.53,0.02 -3.8,0l0.01 -8.4c0.53,-0.03 1.11,-0.01 1.65,-0.01 0.3,0 0.49,0.02 0.7,-0.14 0.35,-0.26 0.43,-0.8 0.12,-1.13 -0.16,-0.17 -0.37,-0.32 -0.54,-0.48l-1.65 -1.43c-0.14,-0.13 -0.29,-0.26 -0.45,-0.39l-0.44 -0.38c-0.08,-0.06 -0.16,-0.13 -0.23,-0.2l-1.53 -1.32c-0.3,-0.26 -0.56,-0.51 -0.88,-0.77l-2.21 -1.92c-0.35,-0.33 -0.75,-0.63 -1.11,-0.95 -0.08,-0.07 -0.15,-0.13 -0.22,-0.19 -0.15,-0.14 -0.28,-0.24 -0.43,-0.38l-1.54 -1.34c-0.46,-0.4 -0.81,-0.65 -1.38,-0.18l-8.62 7.47c-0.29,0.26 -0.55,0.53 -0.87,0.76 -0.41,0.32 -1.25,1.11 -1.76,1.53 -0.5,0.4 -0.51,1.01 -0.03,1.32 0.21,0.14 0.42,0.12 0.69,0.12 0.53,0 1.11,-0.02 1.63,0.01l0 8.4c-1.27,0.02 -2.54,0 -3.82,0 -0.36,0 -0.86,-0.07 -1.14,0.1 -0.64,0.37 -0.43,1.39 0.35,1.42 0.53,0.02 2.16,-0.06 2.51,0.01l0 1.84c-0.21,0.09 -1.04,0.21 -1.32,0.25 -0.47,0.08 -0.93,0.13 -1.41,0.15 -0.51,0.03 -2.64,0.1 -3.02,-0.02 -0.11,-0.98 -0.27,-1.93 -0.36,-2.94 -0.09,-1.01 -0.14,-2.03 -0.17,-3.07 -0.14,-4.6 0.58,-9.96 2.02,-14.32 0.14,-0.41 0.65,-2 0.86,-2.38 0.11,0.08 0.37,0.44 0.48,0.58 0.15,0.21 0.29,0.41 0.44,0.63 0.57,0.84 1.07,1.78 1.49,2.74 0.14,0.3 0.2,0.48 0.46,0.6 0.3,0.15 0.6,0.08 0.82,-0.08 0.54,-0.4 0.65,-2.94 0.62,-3.64 -0.04,-0.63 -0.14,-1.25 -0.3,-1.81 -0.27,-0.91 -0.41,-0.95 -0.62,-1.5 1.34,-0.13 3.84,0.24 5.21,0.56 0.39,0.09 0.67,0.05 0.89,-0.17 0.18,-0.18 0.29,-0.54 0.14,-0.85 -0.1,-0.21 -0.25,-0.32 -0.38,-0.49 -0.72,-0.86 -1.7,-1.65 -2.65,-2.23 -1.06,-0.64 -2.04,-0.95 -3.46,-1.13 0.02,-0.18 0.15,-0.61 0.18,-0.85 0.14,-0.95 0.09,-1.94 -0.04,-2.88 -0.06,-0.45 -0.35,-2.15 -0.61,-2.5 -0.13,-0.18 -0.41,-0.33 -0.73,-0.28 -0.61,0.1 -0.64,0.7 -0.81,1.27 -0.16,0.52 -0.36,1.03 -0.57,1.5 -0.2,0.46 -0.46,0.96 -0.71,1.36 -0.15,0.25 -0.66,1.05 -0.89,1.17 -0.26,-0.2 -0.52,-0.43 -0.79,-0.61 -0.28,-0.18 -0.57,-0.35 -0.88,-0.5 -1.88,-0.86 -3.95,-0.83 -5.94,-0.4 -0.61,0.13 -0.55,0.3 -0.74,0.64z"/>
 </g>
</svg>
