<?xml version="1.0" encoding="UTF-8"?>
<!DOCTYPE svg PUBLIC "-//W3C//DTD SVG 1.1//EN" "http://www.w3.org/Graphics/SVG/1.1/DTD/svg11.dtd">
<!-- Creator: CorelDRAW -->
<svg xmlns="http://www.w3.org/2000/svg" xml:space="preserve" version="1.1" shape-rendering="geometricPrecision" text-rendering="geometricPrecision" image-rendering="optimizeQuality" fill-rule="evenodd" clip-rule="evenodd"
viewBox="0 0 233.33 233.33"
 xmlns:xlink="http://www.w3.org/1999/xlink"
 xmlns:xodm="http://www.corel.com/coreldraw/odm/2003">
 <g id="Camada_x0020_1">
  <metadata id="CorelCorpID_0Corel-Layer"/>
  <path fill="#717171" d="M97.53 191.57c0,-5.15 1.06,-9.33 2.84,-12.6 2.01,-3.71 4.94,-6.26 8.26,-7.77 1.22,-0.56 2.49,-0.98 3.78,-1.25 1.33,-0.28 2.7,-0.41 4.05,-0.41 1.32,0.01 2.65,0.15 3.95,0.41 1.3,0.27 2.58,0.66 3.8,1.17 3.39,1.42 6.41,3.75 8.52,6.85 1.91,2.81 3.06,6.25 3.06,10.22l-0.01 31.89c0,0.88 -0.35,1.67 -0.93,2.25 -0.57,0.57 -1.37,0.93 -2.24,0.93l-31.9 0.01c-0.88,0 -1.68,-0.36 -2.25,-0.93 -0.58,-0.58 -0.93,-1.38 -0.93,-2.26l0 -28.51zm30.05 -62.14l18.27 0 0 -9.58 -18.27 0 0 9.58zm65.64 -19.53l-0.01 -42.54c0.01,-0.35 -0.11,-0.71 -0.31,-1.05 -0.23,-0.4 -0.58,-0.79 -0.99,-1.13 -0.53,-0.43 -1.15,-0.78 -1.79,-1.02 -0.63,-0.24 -1.3,-0.37 -1.94,-0.37l-31.41 0c-0.65,0 -1.28,0.14 -1.86,0.39 -0.61,0.26 -1.17,0.65 -1.65,1.13 -0.48,0.47 -0.86,1.04 -1.13,1.65 -0.25,0.58 -0.39,1.21 -0.39,1.86l0 15.95c0,0.88 -0.36,1.68 -0.93,2.25 -0.58,0.58 -1.38,0.93 -2.26,0.93l-7.73 0c-0.87,0 -1.67,-0.36 -2.24,-0.94 -0.58,-0.57 -0.93,-1.37 -0.93,-2.24l0 -15.95c0,-2.56 -1.48,-3.83 -3.39,-4.45 -2,-0.65 -4.51,-0.62 -6.35,-0.6l-1.09 0.02c-0.89,0 -1.69,-0.36 -2.26,-0.93 -0.58,-0.58 -0.94,-1.37 -0.94,-2.25l0 -15.47c0.01,-0.88 0.37,-1.67 0.94,-2.25 0.58,-0.57 1.37,-0.92 2.25,-0.92l31.41 0c0.97,-0.01 1.89,-0.15 2.71,-0.4 0.8,-0.26 1.52,-0.63 2.11,-1.1 0.52,-0.43 0.95,-0.95 1.23,-1.56 0.28,-0.58 0.43,-1.25 0.43,-1.98l0 -31.9c0,-0.65 -0.14,-1.28 -0.39,-1.86 -0.26,-0.61 -0.65,-1.18 -1.13,-1.65 -0.47,-0.48 -1.04,-0.87 -1.65,-1.13 -0.58,-0.25 -1.21,-0.39 -1.86,-0.39l-40.11 0c-0.92,0 -1.73,0.17 -2.43,0.46 -0.72,0.32 -1.32,0.78 -1.8,1.36 -0.58,0.69 -1.01,1.57 -1.31,2.58 -0.3,1.04 -0.46,2.23 -0.46,3.53l0 52.68c0,0.88 -0.35,1.67 -0.93,2.25 -0.58,0.57 -1.37,0.93 -2.25,0.93 -14.85,0 -14.84,0.46 -14.74,15.4l0.04 5.58c0,0.88 -0.36,1.68 -0.93,2.25 -0.58,0.58 -1.38,0.93 -2.25,0.93 -1.35,0 -2.21,0.04 -2.93,0.06l-0.12 0.01c-1.85,0.07 -3.24,0.13 -4.38,-0.17 -1.19,-0.31 -2.06,-0.98 -2.8,-2.36l-0.11 -0.21c-0.44,-0.88 -0.65,-1.94 -0.72,-3.36 -0.08,-1.37 -0.03,-3.1 0.03,-5.38l0.01 -0.22c0.05,-1.92 0.11,-4.27 0.13,-7.05l0.01 -0.75c0.01,-0.69 0.02,-1.14 -0.14,-1.6l-0.85 -1.27 -0.27 -0.37c-0.17,-0.18 -0.4,-0.37 -0.67,-0.54 -0.27,-0.18 -0.6,-0.35 -0.95,-0.5 -0.35,-0.14 -0.72,-0.26 -1.11,-0.33 -0.35,-0.08 -0.72,-0.12 -1.08,-0.12l-31.41 0c-0.72,0 -1.41,0.13 -2.02,0.36 -0.63,0.24 -1.2,0.59 -1.66,1.02 -0.43,0.4 -0.77,0.89 -1.01,1.44 -0.22,0.52 -0.34,1.1 -0.34,1.73l0 41.56c0,1.28 10.09,15.84 13.15,20.25l0.59 0.84c1.14,1.65 1.71,2.61 1.99,3.64 0.29,1.04 0.27,2.08 0.23,3.92l-0.03 1.81 0 84.56 -0.03 1.85c-0.02,1.01 -0.04,1.8 0.06,2.5 0.09,0.66 0.29,1.25 0.7,1.89 0.16,0.25 0.41,0.53 0.72,0.81 0.3,0.27 0.66,0.54 1.06,0.78 0.3,0.18 0.61,0.34 0.9,0.44 0.24,0.09 0.47,0.14 0.67,0.14l112.6 0c0.77,0 1.43,-0.14 2,-0.39 0.6,-0.26 1.1,-0.65 1.49,-1.13 0.5,-0.62 0.88,-1.4 1.14,-2.3 0.28,-0.94 0.42,-2 0.43,-3.14l-0.02 -84.58c0,-4.33 0.02,-6.54 0.62,-8.48 0.6,-1.95 1.74,-3.54 3.97,-6.66l1.98 -2.78c0.74,-1.06 1.58,-2.29 2.56,-3.75l1.01 -1.47c0.95,-1.37 2.3,-3.3 3.4,-5.05 1.08,-1.69 1.92,-3.18 1.92,-3.7zm-143.54 -4.35l0 -28.51c0,-0.88 0.36,-1.68 0.93,-2.26 0.58,-0.57 1.38,-0.93 2.26,-0.93l15.95 0c0.87,0 1.67,0.36 2.25,0.93 0.57,0.58 0.93,1.38 0.93,2.26l0 15.94c0,0.65 0.12,1.26 0.33,1.8 0.22,0.55 0.55,1.05 0.96,1.45 0.41,0.41 0.91,0.74 1.47,0.96 0.54,0.22 1.14,0.34 1.79,0.34l24.64 0c2.03,0 3.22,-1.19 3.89,-3.03 0.72,-1.96 0.9,-4.65 0.9,-7.49 0,-0.99 -0.02,-1.86 -0.04,-2.67l-0.08 -2.71c-0.06,-1.72 -0.12,-3.39 -0.12,-4.59 0,-0.88 0.36,-1.68 0.93,-2.26 0.58,-0.57 1.38,-0.93 2.26,-0.93l15.46 0c0.88,0 1.68,0.36 2.26,0.93 0.57,0.58 0.93,1.38 0.93,2.26 0,0.59 -0.04,1.89 -0.07,3.35l-0.01 0.31c-0.07,2.75 -0.16,6.06 -0.04,8.89 0.11,2.74 0.42,5.01 1.1,5.78 0.23,0.26 0.5,0.55 0.8,0.84 0.3,0.28 0.62,0.55 0.95,0.78 0.24,0.16 0.48,0.31 0.72,0.41 0.21,0.09 0.42,0.14 0.61,0.14l26.1 0c1.78,0 2.83,-1.51 3.44,-3.72 0.65,-2.33 0.8,-5.44 0.8,-8.41 0.01,-1.62 -0.04,-3.29 -0.09,-4.82l-0.01 -0.37c-0.04,-1.34 -0.08,-2.55 -0.08,-3.18 0,-0.88 0.36,-1.68 0.93,-2.26 0.58,-0.57 1.38,-0.93 2.26,-0.93l15.46 0c0.88,0 1.68,0.36 2.25,0.93 0.58,0.58 0.94,1.38 0.94,2.26l0 28.03c0,2.7 -4.97,9.84 -7.6,13.61l-1.17 1.69 -1.87 2.76 -1.8 2.58c-0.85,1.22 -1.51,2.16 -2.04,2.99 -0.49,0.78 -0.82,1.4 -1.03,1.98 -0.48,1.35 -0.47,3.17 -0.46,7.14l0.01 2.52c0,0.88 -0.36,1.67 -0.93,2.25 -0.58,0.57 -1.37,0.93 -2.25,0.93l-12.76 0.01 0 10.06 12.76 0c0.88,0 1.68,0.36 2.26,0.93 0.57,0.58 0.93,1.38 0.93,2.26l0 63.3c0,0.88 -0.36,1.68 -0.93,2.26 -0.58,0.57 -1.38,0.93 -2.26,0.93l-15.46 0c-0.88,0 -1.68,-0.36 -2.25,-0.93 -0.58,-0.58 -0.94,-1.38 -0.94,-2.26 0.03,-2.13 0.14,-4.42 0.08,-6.54 0.14,-11.19 0.36,-27.71 -1.77,-34.08 -1.28,-3.83 -3.19,-7.13 -5.53,-9.86 -2.49,-2.92 -5.49,-5.21 -8.76,-6.85 -1.72,-0.86 -3.52,-1.54 -5.37,-2.05 -1.88,-0.5 -3.8,-0.83 -5.73,-0.97 -1.93,-0.14 -3.88,-0.09 -5.8,0.15 -1.9,0.23 -3.78,0.66 -5.6,1.27 -3.44,1.15 -6.71,2.98 -9.57,5.5 -2.69,2.36 -5.02,5.34 -6.82,8.93 -0.37,0.73 -0.74,1.54 -1.1,2.41 -0.35,0.86 -0.69,1.79 -0.99,2.78 -0.28,0.94 -0.52,1.91 -0.68,2.91 -0.16,0.99 -0.26,2.02 -0.26,3.06l0 33.34c0,0.88 -0.36,1.68 -0.93,2.26 -0.58,0.57 -1.38,0.93 -2.26,0.93l-15.94 0c-0.88,0 -1.68,-0.36 -2.26,-0.93 -0.57,-0.58 -0.93,-1.38 -0.93,-2.26l0 -87.95c0,-2.08 -4.99,-9.05 -9.21,-14.95 -1.79,-2.49 -3.45,-4.82 -4.68,-6.81 -1.26,-2.02 -2.06,-3.69 -2.06,-4.82zm78.36 -95.48l23.41 0c0.88,0 1.67,0.36 2.25,0.93 0.57,0.57 0.93,1.37 0.93,2.24l0.01 15.47c0,0.88 -0.36,1.68 -0.93,2.25 -0.58,0.58 -1.38,0.94 -2.26,0.94l-23.67 0c-0.88,0 -1.68,-0.36 -2.26,-0.94 -0.57,-0.57 -0.93,-1.37 -0.93,-2.25l0 -15.46c0,-0.88 0.36,-1.68 0.93,-2.26 0.58,-0.57 1.38,-0.93 2.26,-0.93l0.26 0.01z"/>
  <rect fill="none" width="233.33" height="233.33"/>
 </g>
</svg>
